<svg xmlns="http://www.w3.org/2000/svg" xmlns:xlink="http://www.w3.org/1999/xlink" width="800" zoomAndPan="magnify" viewBox="0 0 600 599.999999" height="800" preserveAspectRatio="xMidYMid meet" version="1.0"><defs><clipPath id="1bf212a75d"><path d="M 90.75 61.359375 L 509.25 61.359375 L 509.25 487.699219 L 90.75 487.699219 Z M 90.75 61.359375 " clip-rule="nonzero"/></clipPath></defs><g clip-path="url(#1bf212a75d)"><path fill="#000000" d="M 508.640625 143.6875 L 508.914062 142.929688 L 300.035156 61.359375 L 91.46875 143.773438 L 90.769531 143.5 L 90.769531 144.027344 L 90.75 144.046875 L 90.769531 144.132812 L 90.769531 405.769531 L 299.929688 487.699219 L 509.105469 405.75 L 509.105469 143.5 Z M 299.824219 77.402344 L 370.691406 102.765625 L 177.523438 177.699219 L 112.109375 151.910156 Z M 292.484375 469.226562 L 214.152344 437.605469 L 174.835938 422.851562 L 105.722656 395.605469 L 105.722656 165.460938 L 174.136719 192.433594 L 174.136719 249.96875 L 180.230469 248.277344 L 184.351562 253.921875 L 190.082031 252.589844 L 195.644531 258.464844 L 200.488281 256.773438 L 208.3125 264.53125 L 208.3125 205.898438 L 214.402344 208.304688 L 292.484375 239.082031 Z M 299.949219 225.976562 L 223.5625 195.855469 L 411.929688 119.550781 L 489.628906 151.191406 Z M 494.175781 395.605469 L 307.414062 469.226562 L 307.414062 239.082031 L 494.152344 165.441406 L 494.152344 395.605469 Z M 494.175781 395.605469 " fill-opacity="1" fill-rule="nonzero"/></g></svg>