<svg xmlns="http://www.w3.org/2000/svg" xmlns:xlink="http://www.w3.org/1999/xlink" width="800" zoomAndPan="magnify" viewBox="0 0 600 599.999999" height="800" preserveAspectRatio="xMidYMid meet" version="1.0"><defs><filter x="0%" y="0%" width="100%" height="100%" id="73d8dd35cf"><feColorMatrix values="0 0 0 0 1 0 0 0 0 1 0 0 0 0 1 0 0 0 1 0" color-interpolation-filters="sRGB"/></filter><clipPath id="4fdc18506a"><path d="M 187 64.929688 L 413 64.929688 L 413 535.179688 L 187 535.179688 Z M 187 64.929688 " clip-rule="nonzero"/></clipPath><clipPath id="80df411047"><path d="M 211 535 L 389 535 L 389 535.179688 L 211 535.179688 Z M 211 535 " clip-rule="nonzero"/></clipPath><clipPath id="833def6461"><path d="M 211 535 L 389 535 L 389 535.179688 L 211 535.179688 Z M 211 535 " clip-rule="nonzero"/></clipPath><clipPath id="03d0d0b765"><path d="M 188 65 L 412 65 L 412 535.179688 L 188 535.179688 Z M 188 65 " clip-rule="nonzero"/></clipPath><clipPath id="6309afee62"><path d="M 209 533 L 391 533 L 391 535.179688 L 209 535.179688 Z M 209 533 " clip-rule="nonzero"/></clipPath><mask id="ac3a2b3f21"><g filter="url(#73d8dd35cf)"><rect x="-60" width="720" fill="#000000" y="-60" height="719.999999" fill-opacity="0.8"/></g></mask><clipPath id="18c52b93b8"><path d="M 0.0390625 0.679688 L 182 0.679688 L 182 206 L 0.0390625 206 Z M 0.0390625 0.679688 " clip-rule="nonzero"/></clipPath><clipPath id="9c92070f06"><rect x="0" width="183" y="0" height="207"/></clipPath><mask id="7c8a4fefa4"><g filter="url(#73d8dd35cf)"><rect x="-60" width="720" fill="#000000" y="-60" height="719.999999" fill-opacity="0.2"/></g></mask><clipPath id="e580223999"><path d="M 0.0390625 0.679688 L 182 0.679688 L 182 206 L 0.0390625 206 Z M 0.0390625 0.679688 " clip-rule="nonzero"/></clipPath><clipPath id="81e76719da"><rect x="0" width="183" y="0" height="207"/></clipPath><mask id="991dc6f1e6"><g filter="url(#73d8dd35cf)"><rect x="-60" width="720" fill="#000000" y="-60" height="719.999999" fill-opacity="0.8"/></g></mask><clipPath id="0641d3fd87"><path d="M 0.0390625 0.121094 L 182 0.121094 L 182 206 L 0.0390625 206 Z M 0.0390625 0.121094 " clip-rule="nonzero"/></clipPath><clipPath id="2c0ce384c5"><rect x="0" width="183" y="0" height="207"/></clipPath><mask id="6e3c57cc41"><g filter="url(#73d8dd35cf)"><rect x="-60" width="720" fill="#000000" y="-60" height="719.999999" fill-opacity="0.2"/></g></mask><clipPath id="c6609301fb"><path d="M 0.0390625 0.121094 L 182 0.121094 L 182 206 L 0.0390625 206 Z M 0.0390625 0.121094 " clip-rule="nonzero"/></clipPath><clipPath id="5b6c0e820d"><rect x="0" width="183" y="0" height="207"/></clipPath><clipPath id="92ba73a0b1"><path d="M 209 533 L 392 533 L 392 535.179688 L 209 535.179688 Z M 209 533 " clip-rule="nonzero"/></clipPath><mask id="083e2c2add"><g filter="url(#73d8dd35cf)"><rect x="-60" width="720" fill="#000000" y="-60" height="719.999999" fill-opacity="0.8"/></g></mask><clipPath id="16bffd992c"><path d="M 0.0390625 0.28125 L 182 0.28125 L 182 2.179688 L 0.0390625 2.179688 Z M 0.0390625 0.28125 " clip-rule="nonzero"/></clipPath><clipPath id="311e1f2ac7"><rect x="0" width="183" y="0" height="3"/></clipPath><mask id="b4c6ecd973"><g filter="url(#73d8dd35cf)"><rect x="-60" width="720" fill="#000000" y="-60" height="719.999999" fill-opacity="0.2"/></g></mask><clipPath id="ee2fa131d3"><path d="M 0.0390625 0.28125 L 182 0.28125 L 182 2.179688 L 0.0390625 2.179688 Z M 0.0390625 0.28125 " clip-rule="nonzero"/></clipPath><clipPath id="d33cda98ea"><rect x="0" width="183" y="0" height="3"/></clipPath><clipPath id="34fdd9d7e0"><path d="M 187 64.929688 L 413.324219 64.929688 L 413.324219 535.179688 L 187 535.179688 Z M 187 64.929688 " clip-rule="nonzero"/></clipPath><mask id="8a87602941"><g filter="url(#73d8dd35cf)"><rect x="-60" width="720" fill="#000000" y="-60" height="719.999999" fill-opacity="0.2"/></g></mask><clipPath id="d365d748e0"><path d="M 0.199219 0.929688 L 226 0.929688 L 226 471.179688 L 0.199219 471.179688 Z M 0.199219 0.929688 " clip-rule="nonzero"/></clipPath><clipPath id="09eb118203"><rect x="0" width="227" y="0" height="472"/></clipPath><mask id="127b22560f"><g filter="url(#73d8dd35cf)"><rect x="-60" width="720" fill="#000000" y="-60" height="719.999999" fill-opacity="0.8"/></g></mask><clipPath id="3bc9cfe1a1"><path d="M 0.199219 0.929688 L 226 0.929688 L 226 471.179688 L 0.199219 471.179688 Z M 0.199219 0.929688 " clip-rule="nonzero"/></clipPath><clipPath id="bfcd03c64e"><rect x="0" width="227" y="0" height="472"/></clipPath><clipPath id="e452616dfb"><path d="M 218.390625 120.476562 L 381.890625 120.476562 L 381.890625 243.476562 L 218.390625 243.476562 Z M 218.390625 120.476562 " clip-rule="nonzero"/></clipPath></defs><g clip-path="url(#4fdc18506a)"><path fill="#000000" d="M 187.230469 64.929688 L 412.765625 64.929688 L 412.765625 759.863281 L 187.230469 759.863281 Z M 187.230469 64.929688 " fill-opacity="1" fill-rule="nonzero"/></g><path fill="#231f20" d="M 211.105469 87.105469 L 388.890625 87.105469 L 388.890625 289.625 L 211.105469 289.625 Z M 211.105469 87.105469 " fill-opacity="1" fill-rule="nonzero"/><path fill="#231f20" d="M 211.105469 311.136719 L 388.890625 311.136719 L 388.890625 513.660156 L 211.105469 513.660156 Z M 211.105469 311.136719 " fill-opacity="1" fill-rule="nonzero"/><g clip-path="url(#80df411047)"><path fill="#231f20" d="M 211.105469 535.167969 L 388.890625 535.167969 L 388.890625 737.6875 L 211.105469 737.6875 Z M 211.105469 535.167969 " fill-opacity="1" fill-rule="nonzero"/></g><path fill="#ffffff" d="M 211.105469 87.105469 L 388.890625 87.105469 L 388.890625 289.625 L 211.105469 289.625 Z M 211.105469 87.105469 " fill-opacity="1" fill-rule="nonzero"/><path fill="#ffffff" d="M 211.105469 311.136719 L 388.890625 311.136719 L 388.890625 513.660156 L 211.105469 513.660156 Z M 211.105469 311.136719 " fill-opacity="1" fill-rule="nonzero"/><g clip-path="url(#833def6461)"><path fill="#ffffff" d="M 211.105469 535.167969 L 388.890625 535.167969 L 388.890625 737.6875 L 211.105469 737.6875 Z M 211.105469 535.167969 " fill-opacity="1" fill-rule="nonzero"/></g><g clip-path="url(#03d0d0b765)"><path fill="#000000" d="M 188.203125 65.855469 L 188.203125 758.9375 L 411.792969 758.9375 L 411.792969 65.855469 Z M 389.804688 737.949219 L 210.191406 737.949219 L 210.191406 534.902344 L 389.804688 534.902344 Z M 389.804688 513.914062 L 210.191406 513.914062 L 210.191406 310.878906 L 389.804688 310.878906 L 389.804688 513.917969 Z M 210.191406 289.886719 L 210.191406 86.84375 L 389.804688 86.84375 L 389.804688 289.886719 Z M 210.191406 289.886719 " fill-opacity="1" fill-rule="nonzero"/></g><path fill="#ffffff" d="M 209.230469 85.925781 L 209.230469 290.804688 L 390.761719 290.804688 L 390.761719 85.925781 Z M 388.84375 288.96875 L 211.152344 288.96875 L 211.152344 87.761719 L 388.84375 87.761719 Z M 388.84375 288.96875 " fill-opacity="1" fill-rule="nonzero"/><path fill="#ffffff" d="M 209.230469 514.835938 L 390.761719 514.835938 L 390.761719 309.960938 L 209.230469 309.960938 Z M 211.152344 311.796875 L 388.84375 311.796875 L 388.84375 513 L 211.152344 513 Z M 211.152344 311.796875 " fill-opacity="1" fill-rule="nonzero"/><g clip-path="url(#6309afee62)"><path fill="#ffffff" d="M 209.230469 738.867188 L 390.761719 738.867188 L 390.761719 533.988281 L 209.230469 533.988281 Z M 211.152344 535.820312 L 388.84375 535.820312 L 388.84375 737.027344 L 211.152344 737.027344 Z M 211.152344 535.820312 " fill-opacity="1" fill-rule="nonzero"/></g><g mask="url(#ac3a2b3f21)"><g transform="matrix(1, 0, 0, 1, 209, 85)"><g clip-path="url(#9c92070f06)"><g clip-path="url(#18c52b93b8)"><path fill="#ffffff" d="M 179.84375 2.761719 L 179.84375 203.96875 L 2.152344 203.96875 L 0.230469 205.804688 L 181.765625 205.804688 L 181.765625 0.925781 Z M 179.84375 2.761719 " fill-opacity="1" fill-rule="nonzero"/></g></g></g></g><g mask="url(#7c8a4fefa4)"><g transform="matrix(1, 0, 0, 1, 209, 85)"><g clip-path="url(#81e76719da)"><g clip-path="url(#e580223999)"><path fill="#3d3434" d="M 2.152344 2.761719 L 179.84375 2.761719 L 181.765625 0.925781 L 0.230469 0.925781 L 0.230469 205.804688 L 2.152344 203.96875 Z M 2.152344 2.761719 " fill-opacity="1" fill-rule="nonzero"/></g></g></g></g><g mask="url(#991dc6f1e6)"><g transform="matrix(1, 0, 0, 1, 209, 309)"><g clip-path="url(#2c0ce384c5)"><g clip-path="url(#0641d3fd87)"><path fill="#ffffff" d="M 179.84375 203.996094 L 2.152344 203.996094 L 0.230469 205.835938 L 181.765625 205.835938 L 181.765625 0.960938 L 179.84375 2.796875 Z M 179.84375 203.996094 " fill-opacity="1" fill-rule="nonzero"/></g></g></g></g><g mask="url(#6e3c57cc41)"><g transform="matrix(1, 0, 0, 1, 209, 309)"><g clip-path="url(#5b6c0e820d)"><g clip-path="url(#c6609301fb)"><path fill="#3d3434" d="M 0.230469 205.835938 L 2.152344 203.996094 L 2.152344 2.796875 L 179.84375 2.796875 L 181.765625 0.960938 L 0.230469 0.960938 Z M 0.230469 205.835938 " fill-opacity="1" fill-rule="nonzero"/></g></g></g></g><g clip-path="url(#92ba73a0b1)"><g mask="url(#083e2c2add)"><g transform="matrix(1, 0, 0, 1, 209, 533)"><g clip-path="url(#311e1f2ac7)"><g clip-path="url(#16bffd992c)"><path fill="#ffffff" d="M 179.84375 204.03125 L 2.152344 204.03125 L 0.230469 205.867188 L 181.765625 205.867188 L 181.765625 0.988281 L 179.84375 2.820312 Z M 179.84375 204.03125 " fill-opacity="1" fill-rule="nonzero"/></g></g></g></g><g mask="url(#b4c6ecd973)"><g transform="matrix(1, 0, 0, 1, 209, 533)"><g clip-path="url(#d33cda98ea)"><g clip-path="url(#ee2fa131d3)"><path fill="#3d3434" d="M 0.230469 205.867188 L 2.152344 204.03125 L 2.152344 2.820312 L 179.84375 2.820312 L 181.765625 0.988281 L 0.230469 0.988281 Z M 0.230469 205.867188 " fill-opacity="1" fill-rule="nonzero"/></g></g></g></g></g><g clip-path="url(#34fdd9d7e0)"><g mask="url(#8a87602941)"><g transform="matrix(1, 0, 0, 1, 187, 64)"><g clip-path="url(#09eb118203)"><g clip-path="url(#d365d748e0)"><path fill="#3d3434" d="M 223.824219 2.78125 L 223.824219 694.011719 L 2.171875 694.011719 L 0.230469 695.863281 L 225.765625 695.863281 L 225.765625 0.929688 Z M 223.824219 2.78125 " fill-opacity="1" fill-rule="nonzero"/></g></g></g></g><g mask="url(#127b22560f)"><g transform="matrix(1, 0, 0, 1, 187, 64)"><g clip-path="url(#bfcd03c64e)"><g clip-path="url(#3bc9cfe1a1)"><path fill="#ffffff" d="M 2.171875 2.78125 L 223.824219 2.78125 L 225.765625 0.929688 L 0.230469 0.929688 L 0.230469 695.863281 L 2.171875 694.011719 Z M 2.171875 2.78125 " fill-opacity="1" fill-rule="nonzero"/></g></g></g></g></g><path fill="#000000" d="M 238.832031 171.761719 C 236.945312 171.761719 235.425781 170.234375 235.425781 168.355469 L 235.425781 141.105469 C 235.425781 139.222656 236.953125 137.703125 238.832031 137.703125 L 266.082031 137.703125 C 267.964844 137.703125 269.488281 139.230469 269.488281 141.105469 C 269.488281 142.988281 267.960938 144.511719 266.082031 144.511719 L 242.234375 144.511719 L 242.234375 168.351562 C 242.234375 170.234375 240.707031 171.761719 238.832031 171.761719 Z M 238.832031 171.761719 " fill-opacity="1" fill-rule="nonzero"/><path fill="#000000" d="M 361.457031 226.25 L 334.207031 226.25 C 332.324219 226.25 330.800781 224.722656 330.800781 222.84375 C 330.800781 220.964844 332.328125 219.441406 334.207031 219.441406 L 358.054688 219.441406 L 358.054688 195.601562 C 358.054688 193.71875 359.582031 192.195312 361.457031 192.195312 C 363.339844 192.195312 364.863281 193.722656 364.863281 195.601562 L 364.863281 222.84375 C 364.867188 224.722656 363.339844 226.25 361.457031 226.25 Z M 361.457031 226.25 " fill-opacity="1" fill-rule="nonzero"/><g clip-path="url(#e452616dfb)"><path fill="#000000" d="M 371.832031 243.273438 L 228.449219 243.273438 C 222.902344 243.273438 218.390625 238.757812 218.390625 233.214844 L 218.390625 130.734375 C 218.390625 125.1875 222.902344 120.675781 228.449219 120.675781 L 371.832031 120.675781 C 377.382812 120.675781 381.898438 125.1875 381.898438 130.734375 L 381.898438 233.210938 C 381.898438 238.757812 377.382812 243.273438 371.832031 243.273438 Z M 228.449219 127.484375 C 226.65625 127.484375 225.199219 128.941406 225.199219 130.734375 L 225.199219 233.210938 C 225.199219 235.003906 226.65625 236.460938 228.449219 236.460938 L 371.832031 236.460938 C 373.625 236.460938 375.085938 235.003906 375.085938 233.210938 L 375.085938 130.734375 C 375.085938 128.941406 373.625 127.484375 371.832031 127.484375 Z M 228.449219 127.484375 " fill-opacity="1" fill-rule="nonzero"/></g></svg>