<svg xmlns="http://www.w3.org/2000/svg" xmlns:xlink="http://www.w3.org/1999/xlink" width="800" zoomAndPan="magnify" viewBox="0 0 600 599.999999" height="800" preserveAspectRatio="xMidYMid meet" version="1.0"><defs><clipPath id="d226f44d4c"><path d="M 75 141.65625 L 525 141.65625 L 525 458.15625 L 75 458.15625 Z M 75 141.65625 " clip-rule="nonzero"/></clipPath></defs><g clip-path="url(#d226f44d4c)"><path fill="#000000" d="M 232.609375 212.664062 L 253.4375 155.414062 C 253.460938 155.359375 253.507812 155.320312 253.53125 155.265625 C 253.550781 155.207031 253.535156 155.148438 253.554688 155.09375 L 258.417969 141.726562 L 515.109375 234.371094 L 478.433594 255.3125 L 396.324219 225.472656 C 395.460938 225.160156 394.5625 225.003906 393.667969 225.003906 C 392.152344 225.003906 390.648438 225.449219 389.355469 226.308594 L 346.035156 255.175781 Z M 75 458.039062 L 121.632812 458.039062 L 121.632812 271.609375 L 75 271.609375 Z M 510.648438 266.125 L 489.363281 324.515625 L 503.730469 329.742188 L 525 271.347656 Z M 483.019531 270.585938 C 481.035156 271.722656 478.652344 271.925781 476.5 271.144531 L 394.707031 241.417969 L 351.34375 270.304688 C 350.050781 271.167969 348.546875 271.609375 347.03125 271.609375 C 346.109375 271.609375 345.1875 271.449219 344.304688 271.117188 L 219.945312 224.511719 C 215.953125 223.015625 213.914062 218.585938 215.371094 214.582031 L 236.230469 157.246094 L 223.039062 152.449219 C 218.613281 150.839844 213.730469 153.191406 212.230469 157.652344 L 187.300781 231.824219 C 185.246094 237.941406 188.445312 244.578125 194.511719 246.785156 L 293.980469 282.96875 L 288.710938 297.464844 C 286.882812 302.425781 286.863281 307.683594 288.585938 312.460938 L 288.757812 313.542969 L 290.414062 316.347656 C 290.949219 317.273438 291.585938 318.121094 292.246094 318.953125 L 269.074219 349.804688 L 176.039062 349.804688 L 176.039062 327.832031 C 176.039062 322.53125 171.726562 318.21875 166.417969 318.21875 L 137.179688 318.21875 L 137.179688 411.429688 L 166.417969 411.429688 C 171.726562 411.429688 176.039062 407.117188 176.039062 401.816406 L 176.039062 379.84375 L 277.082031 379.84375 C 281.988281 379.84375 286.449219 377.546875 289.273438 373.625 L 319.871094 332.277344 C 321.257812 332.554688 322.667969 332.726562 324.136719 332.726562 C 333.511719 332.726562 341.980469 326.835938 345.214844 318.027344 L 350.5 303.53125 L 455.808594 341.835938 C 462.105469 344.128906 469.054688 340.769531 471.167969 334.414062 L 494.605469 263.972656 Z M 483.019531 270.585938 " fill-opacity="1" fill-rule="nonzero"/></g></svg>