<svg xmlns="http://www.w3.org/2000/svg" xmlns:xlink="http://www.w3.org/1999/xlink" width="800" zoomAndPan="magnify" viewBox="0 0 600 599.999999" height="800" preserveAspectRatio="xMidYMid meet" version="1.0"><defs><clipPath id="8a0c099edb"><path d="M 52.5 114.066406 L 547.5 114.066406 L 547.5 486 L 52.5 486 Z M 52.5 114.066406 " clip-rule="nonzero"/></clipPath></defs><g clip-path="url(#8a0c099edb)"><path fill="#000000" d="M 516.046875 169.324219 L 241.703125 169.324219 L 241.703125 123.921875 C 241.703125 123.300781 241.640625 122.6875 241.519531 122.078125 C 241.398438 121.46875 241.21875 120.875 240.980469 120.300781 C 240.746094 119.726562 240.453125 119.183594 240.109375 118.664062 C 239.761719 118.148438 239.371094 117.671875 238.929688 117.230469 C 238.492188 116.792969 238.015625 116.398438 237.496094 116.054688 C 236.980469 115.707031 236.4375 115.417969 235.863281 115.179688 C 235.289062 114.941406 234.695312 114.761719 234.085938 114.640625 C 233.476562 114.519531 232.863281 114.460938 232.242188 114.460938 L 61.960938 114.460938 C 61.339844 114.460938 60.722656 114.519531 60.113281 114.640625 C 59.503906 114.761719 58.914062 114.941406 58.339844 115.179688 C 57.765625 115.417969 57.222656 115.707031 56.703125 116.054688 C 56.1875 116.398438 55.710938 116.792969 55.269531 117.230469 C 54.832031 117.671875 54.4375 118.148438 54.09375 118.664062 C 53.75 119.183594 53.457031 119.726562 53.21875 120.300781 C 52.980469 120.875 52.804688 121.46875 52.683594 122.078125 C 52.5625 122.6875 52.5 123.300781 52.5 123.921875 L 52.5 476.113281 C 52.5 476.734375 52.5625 477.351562 52.683594 477.960938 C 52.804688 478.570312 52.980469 479.160156 53.21875 479.734375 C 53.457031 480.308594 53.75 480.855469 54.09375 481.371094 C 54.4375 481.886719 54.832031 482.367188 55.269531 482.804688 C 55.710938 483.246094 56.1875 483.636719 56.703125 483.984375 C 57.222656 484.328125 57.765625 484.621094 58.339844 484.855469 C 58.914062 485.09375 59.503906 485.273438 60.113281 485.394531 C 60.722656 485.515625 61.339844 485.578125 61.960938 485.578125 L 232.242188 485.578125 C 232.863281 485.578125 233.476562 485.515625 234.085938 485.394531 C 234.695312 485.273438 235.289062 485.09375 235.863281 484.855469 C 236.4375 484.621094 236.980469 484.328125 237.496094 483.984375 C 238.015625 483.636719 238.492188 483.246094 238.929688 482.804688 C 239.371094 482.367188 239.761719 481.886719 240.109375 481.371094 C 240.453125 480.855469 240.746094 480.308594 240.980469 479.734375 C 241.21875 479.160156 241.398438 478.570312 241.519531 477.960938 C 241.640625 477.351562 241.703125 476.734375 241.703125 476.113281 L 241.703125 409.464844 L 337.957031 409.464844 C 336.550781 419.832031 333.632812 429.753906 329.207031 439.230469 C 327.824219 439.609375 326.484375 440.097656 325.179688 440.695312 C 323.878906 441.292969 322.632812 441.992188 321.441406 442.792969 C 320.253906 443.59375 319.136719 444.488281 318.09375 445.46875 C 317.046875 446.453125 316.089844 447.511719 315.21875 448.652344 C 314.347656 449.789062 313.574219 450.988281 312.894531 452.253906 C 312.21875 453.519531 311.648438 454.828125 311.1875 456.1875 C 310.722656 457.542969 310.371094 458.929688 310.132812 460.34375 C 309.894531 461.757812 309.773438 463.179688 309.765625 464.617188 L 309.765625 476.042969 C 309.765625 476.664062 309.828125 477.28125 309.949219 477.890625 C 310.070312 478.5 310.25 479.089844 310.488281 479.664062 C 310.726562 480.238281 311.015625 480.785156 311.363281 481.300781 C 311.707031 481.816406 312.097656 482.296875 312.539062 482.734375 C 312.976562 483.175781 313.457031 483.566406 313.972656 483.910156 C 314.488281 484.257812 315.035156 484.546875 315.605469 484.785156 C 316.179688 485.023438 316.773438 485.203125 317.382812 485.324219 C 317.992188 485.445312 318.605469 485.507812 319.226562 485.507812 L 409.097656 485.507812 C 409.71875 485.507812 410.335938 485.445312 410.945312 485.324219 C 411.554688 485.203125 412.144531 485.023438 412.71875 484.785156 C 413.292969 484.546875 413.835938 484.257812 414.355469 483.910156 C 414.871094 483.566406 415.347656 483.175781 415.789062 482.734375 C 416.226562 482.296875 416.621094 481.816406 416.964844 481.300781 C 417.308594 480.785156 417.601562 480.238281 417.839844 479.664062 C 418.078125 479.089844 418.253906 478.5 418.375 477.890625 C 418.5 477.28125 418.558594 476.664062 418.558594 476.042969 L 418.558594 464.617188 C 418.554688 463.179688 418.4375 461.753906 418.203125 460.335938 C 417.96875 458.917969 417.621094 457.53125 417.160156 456.167969 C 416.699219 454.808594 416.132812 453.496094 415.457031 452.226562 C 414.78125 450.960938 414.007812 449.753906 413.136719 448.613281 C 412.269531 447.472656 411.308594 446.40625 410.265625 445.421875 C 409.222656 444.4375 408.105469 443.542969 406.914062 442.738281 C 405.726562 441.933594 404.476562 441.230469 403.175781 440.632812 C 401.871094 440.03125 400.527344 439.539062 399.140625 439.15625 C 394.714844 429.683594 391.796875 419.761719 390.390625 409.394531 L 516.046875 409.394531 C 517.070312 409.394531 518.09375 409.34375 519.117188 409.242188 C 520.136719 409.140625 521.152344 408.988281 522.15625 408.789062 C 523.164062 408.585938 524.15625 408.339844 525.140625 408.039062 C 526.121094 407.742188 527.085938 407.394531 528.035156 407.003906 C 528.980469 406.609375 529.90625 406.171875 530.8125 405.6875 C 531.71875 405.203125 532.597656 404.675781 533.449219 404.105469 C 534.300781 403.535156 535.125 402.921875 535.917969 402.273438 C 536.710938 401.621094 537.472656 400.933594 538.195312 400.207031 C 538.921875 399.480469 539.609375 398.722656 540.261719 397.925781 C 540.914062 397.132812 541.523438 396.308594 542.09375 395.457031 C 542.664062 394.605469 543.191406 393.722656 543.675781 392.820312 C 544.160156 391.914062 544.597656 390.988281 544.988281 390.039062 C 545.382812 389.089844 545.730469 388.125 546.027344 387.144531 C 546.324219 386.160156 546.574219 385.167969 546.777344 384.160156 C 546.976562 383.152344 547.128906 382.140625 547.230469 381.117188 C 547.328125 380.097656 547.382812 379.074219 547.382812 378.046875 L 547.382812 200.601562 C 547.378906 199.578125 547.324219 198.554688 547.222656 197.535156 C 547.117188 196.515625 546.964844 195.503906 546.761719 194.5 C 546.5625 193.492188 546.308594 192.5 546.011719 191.519531 C 545.710938 190.539062 545.363281 189.578125 544.96875 188.632812 C 544.574219 187.683594 544.136719 186.761719 543.652344 185.855469 C 543.167969 184.953125 542.640625 184.078125 542.070312 183.226562 C 541.496094 182.375 540.886719 181.554688 540.234375 180.761719 C 539.585938 179.96875 538.898438 179.210938 538.171875 178.488281 C 537.445312 177.765625 536.6875 177.078125 535.894531 176.429688 C 535.101562 175.777344 534.28125 175.167969 533.425781 174.601562 C 532.574219 174.03125 531.695312 173.503906 530.792969 173.023438 C 529.890625 172.539062 528.964844 172.101562 528.015625 171.710938 C 527.070312 171.320312 526.105469 170.972656 525.125 170.675781 C 524.144531 170.378906 523.152344 170.128906 522.148438 169.929688 C 521.144531 169.730469 520.132812 169.578125 519.113281 169.476562 C 518.09375 169.375 517.070312 169.324219 516.046875 169.324219 Z M 516.046875 188.253906 C 516.859375 188.253906 517.667969 188.335938 518.464844 188.496094 C 519.265625 188.65625 520.039062 188.890625 520.792969 189.203125 C 521.546875 189.515625 522.261719 189.898438 522.9375 190.351562 C 523.613281 190.804688 524.242188 191.320312 524.816406 191.898438 C 525.394531 192.472656 525.910156 193.101562 526.363281 193.777344 C 526.816406 194.457031 527.199219 195.171875 527.511719 195.921875 C 527.824219 196.675781 528.058594 197.453125 528.21875 198.25 C 528.378906 199.050781 528.460938 199.859375 528.460938 200.671875 L 528.460938 344.402344 L 241.703125 344.402344 L 241.703125 188.253906 Z M 222.78125 466.648438 L 71.421875 466.648438 L 71.421875 133.386719 L 222.78125 133.386719 Z M 399.636719 466.648438 L 328.6875 466.648438 L 328.6875 464.617188 C 328.6875 464.125 328.734375 463.636719 328.832031 463.15625 C 328.925781 462.671875 329.070312 462.203125 329.257812 461.75 C 329.445312 461.296875 329.675781 460.863281 329.945312 460.457031 C 330.21875 460.046875 330.527344 459.667969 330.875 459.320312 C 331.222656 458.972656 331.597656 458.660156 332.007812 458.386719 C 332.414062 458.113281 332.847656 457.882812 333.300781 457.691406 C 333.753906 457.503906 334.21875 457.359375 334.703125 457.261719 C 335.183594 457.167969 335.671875 457.117188 336.160156 457.117188 L 392.164062 457.117188 C 392.65625 457.117188 393.144531 457.167969 393.625 457.261719 C 394.105469 457.359375 394.574219 457.503906 395.027344 457.691406 C 395.480469 457.882812 395.910156 458.113281 396.320312 458.386719 C 396.726562 458.660156 397.105469 458.972656 397.449219 459.320312 C 397.796875 459.667969 398.109375 460.046875 398.378906 460.457031 C 398.652344 460.863281 398.882812 461.296875 399.070312 461.75 C 399.257812 462.203125 399.398438 462.671875 399.496094 463.15625 C 399.589844 463.636719 399.636719 464.125 399.636719 464.617188 Z M 378.351562 438.257812 L 350.042969 438.257812 C 353.683594 428.984375 355.976562 419.386719 356.925781 409.464844 L 371.398438 409.464844 C 372.359375 419.382812 374.65625 428.980469 378.28125 438.257812 Z M 516.046875 390.539062 L 241.703125 390.539062 L 241.703125 363.332031 L 528.53125 363.332031 L 528.53125 378.117188 C 528.53125 378.933594 528.449219 379.746094 528.289062 380.546875 C 528.128906 381.351562 527.890625 382.128906 527.574219 382.882812 C 527.257812 383.636719 526.875 384.355469 526.417969 385.035156 C 525.960938 385.714844 525.445312 386.339844 524.863281 386.917969 C 524.285156 387.496094 523.652344 388.011719 522.972656 388.460938 C 522.289062 388.914062 521.570312 389.296875 520.816406 389.605469 C 520.058594 389.917969 519.277344 390.152344 518.476562 390.308594 C 517.671875 390.464844 516.863281 390.542969 516.046875 390.539062 Z M 516.046875 390.539062 " fill-opacity="1" fill-rule="nonzero"/></g><path fill="#000000" d="M 371.449219 366.5 L 356.878906 366.5 C 356.257812 366.5 355.640625 366.5625 355.035156 366.683594 C 354.425781 366.804688 353.832031 366.984375 353.257812 367.222656 C 352.683594 367.457031 352.140625 367.75 351.625 368.09375 C 351.105469 368.441406 350.628906 368.832031 350.191406 369.273438 C 349.75 369.710938 349.359375 370.191406 349.011719 370.707031 C 348.667969 371.222656 348.375 371.769531 348.140625 372.34375 C 347.902344 372.917969 347.722656 373.507812 347.601562 374.117188 C 347.480469 374.726562 347.417969 375.34375 347.417969 375.964844 C 347.417969 376.585938 347.480469 377.203125 347.601562 377.8125 C 347.722656 378.421875 347.902344 379.011719 348.140625 379.585938 C 348.375 380.160156 348.667969 380.707031 349.011719 381.222656 C 349.359375 381.738281 349.75 382.21875 350.191406 382.65625 C 350.628906 383.09375 351.105469 383.488281 351.625 383.832031 C 352.140625 384.179688 352.683594 384.46875 353.257812 384.707031 C 353.832031 384.945312 354.425781 385.125 355.035156 385.246094 C 355.640625 385.367188 356.257812 385.429688 356.878906 385.429688 L 371.449219 385.429688 C 372.070312 385.429688 372.683594 385.367188 373.292969 385.246094 C 373.902344 385.125 374.492188 384.945312 375.066406 384.707031 C 375.640625 384.46875 376.1875 384.179688 376.703125 383.832031 C 377.21875 383.488281 377.699219 383.09375 378.136719 382.65625 C 378.574219 382.21875 378.96875 381.738281 379.3125 381.222656 C 379.660156 380.707031 379.949219 380.160156 380.1875 379.585938 C 380.425781 379.011719 380.605469 378.421875 380.726562 377.8125 C 380.847656 377.203125 380.90625 376.585938 380.90625 375.964844 C 380.90625 375.34375 380.847656 374.726562 380.726562 374.117188 C 380.605469 373.507812 380.425781 372.917969 380.1875 372.34375 C 379.949219 371.769531 379.660156 371.222656 379.3125 370.707031 C 378.96875 370.191406 378.574219 369.710938 378.136719 369.273438 C 377.699219 368.832031 377.21875 368.441406 376.703125 368.09375 C 376.1875 367.75 375.640625 367.457031 375.066406 367.222656 C 374.492188 366.984375 373.902344 366.804688 373.292969 366.683594 C 372.683594 366.5625 372.070312 366.5 371.449219 366.5 Z M 371.449219 366.5 " fill-opacity="1" fill-rule="nonzero"/><path fill="#000000" d="M 147.101562 373.339844 C 146.117188 373.339844 145.140625 373.386719 144.160156 373.484375 C 143.183594 373.578125 142.214844 373.722656 141.25 373.914062 C 140.289062 374.105469 139.335938 374.34375 138.394531 374.628906 C 137.457031 374.914062 136.53125 375.246094 135.625 375.621094 C 134.71875 375.996094 133.832031 376.417969 132.964844 376.878906 C 132.097656 377.34375 131.257812 377.847656 130.441406 378.394531 C 129.625 378.941406 128.835938 379.523438 128.078125 380.148438 C 127.316406 380.769531 126.589844 381.429688 125.894531 382.125 C 125.203125 382.820312 124.542969 383.546875 123.917969 384.304688 C 123.296875 385.066406 122.710938 385.855469 122.167969 386.671875 C 121.621094 387.488281 121.117188 388.328125 120.652344 389.195312 C 120.191406 390.0625 119.769531 390.949219 119.394531 391.859375 C 119.019531 392.765625 118.6875 393.6875 118.402344 394.628906 C 118.117188 395.570312 117.878906 396.523438 117.6875 397.484375 C 117.496094 398.449219 117.351562 399.417969 117.257812 400.398438 C 117.160156 401.375 117.113281 402.355469 117.113281 403.339844 C 117.113281 404.320312 117.160156 405.300781 117.257812 406.277344 C 117.351562 407.257812 117.496094 408.226562 117.6875 409.191406 C 117.878906 410.15625 118.117188 411.105469 118.402344 412.046875 C 118.6875 412.988281 119.019531 413.910156 119.394531 414.820312 C 119.769531 415.726562 120.191406 416.613281 120.652344 417.480469 C 121.117188 418.347656 121.621094 419.1875 122.167969 420.003906 C 122.710938 420.820312 123.296875 421.609375 123.917969 422.371094 C 124.542969 423.128906 125.203125 423.855469 125.894531 424.550781 C 126.589844 425.246094 127.316406 425.90625 128.078125 426.527344 C 128.835938 427.152344 129.625 427.734375 130.441406 428.28125 C 131.257812 428.828125 132.097656 429.332031 132.964844 429.796875 C 133.832031 430.257812 134.71875 430.679688 135.625 431.054688 C 136.53125 431.429688 137.457031 431.761719 138.394531 432.046875 C 139.335938 432.332031 140.289062 432.570312 141.25 432.761719 C 142.214844 432.953125 143.183594 433.097656 144.160156 433.195312 C 145.140625 433.289062 146.117188 433.339844 147.101562 433.339844 C 148.082031 433.339844 149.0625 433.289062 150.039062 433.195312 C 151.019531 433.097656 151.988281 432.953125 152.953125 432.761719 C 153.914062 432.570312 154.867188 432.332031 155.804688 432.046875 C 156.746094 431.761719 157.667969 431.429688 158.578125 431.054688 C 159.484375 430.679688 160.371094 430.257812 161.238281 429.796875 C 162.105469 429.332031 162.945312 428.828125 163.761719 428.28125 C 164.578125 427.734375 165.367188 427.152344 166.125 426.527344 C 166.886719 425.90625 167.613281 425.246094 168.304688 424.550781 C 169 423.855469 169.660156 423.128906 170.28125 422.371094 C 170.90625 421.609375 171.488281 420.820312 172.035156 420.003906 C 172.582031 419.1875 173.085938 418.347656 173.546875 417.480469 C 174.011719 416.613281 174.429688 415.726562 174.808594 414.820312 C 175.183594 413.910156 175.511719 412.988281 175.796875 412.046875 C 176.082031 411.105469 176.320312 410.15625 176.511719 409.191406 C 176.703125 408.226562 176.847656 407.257812 176.945312 406.277344 C 177.042969 405.300781 177.089844 404.320312 177.089844 403.339844 C 177.089844 402.355469 177.039062 401.375 176.941406 400.398438 C 176.84375 399.421875 176.699219 398.453125 176.503906 397.488281 C 176.3125 396.527344 176.074219 395.574219 175.789062 394.636719 C 175.5 393.695312 175.171875 392.773438 174.792969 391.863281 C 174.417969 390.957031 173.996094 390.070312 173.535156 389.207031 C 173.070312 388.339844 172.566406 387.5 172.019531 386.683594 C 171.476562 385.867188 170.890625 385.078125 170.269531 384.320312 C 169.644531 383.558594 168.988281 382.832031 168.292969 382.140625 C 167.597656 381.445312 166.871094 380.785156 166.113281 380.164062 C 165.355469 379.539062 164.566406 378.953125 163.75 378.410156 C 162.933594 377.863281 162.09375 377.359375 161.226562 376.894531 C 160.363281 376.429688 159.476562 376.011719 158.570312 375.632812 C 157.664062 375.257812 156.738281 374.925781 155.800781 374.640625 C 154.863281 374.355469 153.910156 374.113281 152.949219 373.921875 C 151.984375 373.730469 151.015625 373.585938 150.039062 373.488281 C 149.0625 373.390625 148.082031 373.339844 147.101562 373.339844 Z M 147.101562 414.410156 C 146.375 414.410156 145.65625 414.339844 144.941406 414.199219 C 144.230469 414.054688 143.535156 413.847656 142.867188 413.566406 C 142.195312 413.289062 141.554688 412.949219 140.953125 412.542969 C 140.347656 412.140625 139.789062 411.679688 139.273438 411.167969 C 138.761719 410.652344 138.300781 410.09375 137.898438 409.488281 C 137.496094 408.886719 137.152344 408.246094 136.875 407.574219 C 136.597656 406.902344 136.386719 406.210938 136.246094 405.5 C 136.105469 404.785156 136.03125 404.066406 136.03125 403.339844 C 136.03125 402.609375 136.105469 401.890625 136.246094 401.179688 C 136.386719 400.464844 136.597656 399.773438 136.875 399.101562 C 137.152344 398.429688 137.496094 397.789062 137.898438 397.1875 C 138.300781 396.582031 138.761719 396.023438 139.273438 395.507812 C 139.789062 394.996094 140.347656 394.535156 140.953125 394.132812 C 141.554688 393.726562 142.195312 393.386719 142.867188 393.109375 C 143.535156 392.832031 144.230469 392.621094 144.941406 392.476562 C 145.65625 392.335938 146.375 392.265625 147.101562 392.265625 C 147.828125 392.265625 148.546875 392.335938 149.261719 392.476562 C 149.972656 392.621094 150.664062 392.832031 151.335938 393.109375 C 152.007812 393.386719 152.644531 393.726562 153.25 394.132812 C 153.855469 394.535156 154.414062 394.996094 154.925781 395.507812 C 155.441406 396.023438 155.898438 396.582031 156.304688 397.1875 C 156.707031 397.789062 157.046875 398.429688 157.328125 399.101562 C 157.605469 399.773438 157.816406 400.464844 157.957031 401.179688 C 158.097656 401.890625 158.167969 402.609375 158.167969 403.339844 C 158.167969 404.066406 158.09375 404.785156 157.953125 405.496094 C 157.808594 406.207031 157.597656 406.902344 157.320312 407.570312 C 157.042969 408.242188 156.699219 408.878906 156.296875 409.484375 C 155.894531 410.089844 155.433594 410.648438 154.921875 411.160156 C 154.40625 411.675781 153.847656 412.132812 153.246094 412.539062 C 152.640625 412.941406 152.003906 413.28125 151.332031 413.5625 C 150.664062 413.839844 149.972656 414.050781 149.257812 414.195312 C 148.546875 414.335938 147.828125 414.410156 147.101562 414.410156 Z M 147.101562 414.410156 " fill-opacity="1" fill-rule="nonzero"/><path fill="#000000" d="M 203.863281 149.402344 L 90.339844 149.402344 C 89.71875 149.402344 89.105469 149.464844 88.496094 149.585938 C 87.886719 149.707031 87.292969 149.886719 86.71875 150.125 C 86.144531 150.363281 85.601562 150.652344 85.085938 151 C 84.566406 151.34375 84.089844 151.734375 83.652344 152.175781 C 83.210938 152.613281 82.820312 153.09375 82.476562 153.609375 C 82.128906 154.125 81.839844 154.671875 81.601562 155.246094 C 81.363281 155.820312 81.183594 156.410156 81.0625 157.019531 C 80.941406 157.628906 80.878906 158.246094 80.878906 158.867188 L 80.878906 199.632812 C 80.878906 200.253906 80.941406 200.867188 81.0625 201.480469 C 81.183594 202.089844 81.363281 202.679688 81.601562 203.253906 C 81.839844 203.828125 82.128906 204.375 82.476562 204.890625 C 82.820312 205.40625 83.210938 205.882812 83.652344 206.324219 C 84.089844 206.761719 84.566406 207.15625 85.085938 207.5 C 85.601562 207.847656 86.144531 208.136719 86.71875 208.375 C 87.292969 208.613281 87.886719 208.792969 88.496094 208.914062 C 89.105469 209.035156 89.71875 209.097656 90.339844 209.097656 L 203.863281 209.097656 C 204.484375 209.097656 205.097656 209.035156 205.707031 208.914062 C 206.316406 208.792969 206.90625 208.613281 207.480469 208.375 C 208.054688 208.136719 208.601562 207.847656 209.117188 207.5 C 209.632812 207.15625 210.113281 206.761719 210.550781 206.324219 C 210.988281 205.882812 211.382812 205.40625 211.726562 204.890625 C 212.074219 204.375 212.363281 203.828125 212.601562 203.253906 C 212.839844 202.679688 213.019531 202.089844 213.140625 201.480469 C 213.261719 200.867188 213.320312 200.253906 213.320312 199.632812 L 213.320312 158.867188 C 213.320312 158.246094 213.261719 157.628906 213.140625 157.019531 C 213.019531 156.410156 212.839844 155.820312 212.601562 155.246094 C 212.363281 154.671875 212.074219 154.125 211.726562 153.609375 C 211.382812 153.09375 210.988281 152.613281 210.550781 152.175781 C 210.113281 151.734375 209.632812 151.34375 209.117188 151 C 208.601562 150.652344 208.054688 150.363281 207.480469 150.125 C 206.90625 149.886719 206.316406 149.707031 205.707031 149.585938 C 205.097656 149.464844 204.484375 149.402344 203.863281 149.402344 Z M 194.402344 190.167969 L 99.800781 190.167969 L 99.800781 168.332031 L 194.402344 168.332031 Z M 194.402344 190.167969 " fill-opacity="1" fill-rule="nonzero"/><path fill="#000000" d="M 203.863281 250.546875 L 90.339844 250.546875 C 89.71875 250.546875 89.105469 250.609375 88.496094 250.730469 C 87.886719 250.851562 87.292969 251.03125 86.71875 251.265625 C 86.144531 251.503906 85.601562 251.796875 85.085938 252.140625 C 84.566406 252.488281 84.089844 252.878906 83.652344 253.320312 C 83.210938 253.757812 82.820312 254.234375 82.476562 254.753906 C 82.128906 255.269531 81.839844 255.816406 81.601562 256.390625 C 81.363281 256.964844 81.183594 257.554688 81.0625 258.164062 C 80.941406 258.773438 80.878906 259.390625 80.878906 260.011719 C 80.878906 260.632812 80.941406 261.246094 81.0625 261.855469 C 81.183594 262.464844 81.363281 263.058594 81.601562 263.632812 C 81.839844 264.207031 82.128906 264.75 82.476562 265.269531 C 82.820312 265.785156 83.210938 266.261719 83.652344 266.703125 C 84.089844 267.140625 84.566406 267.535156 85.085938 267.878906 C 85.601562 268.222656 86.144531 268.515625 86.71875 268.753906 C 87.292969 268.992188 87.886719 269.171875 88.496094 269.292969 C 89.105469 269.414062 89.71875 269.472656 90.339844 269.472656 L 203.863281 269.472656 C 204.484375 269.472656 205.097656 269.414062 205.707031 269.292969 C 206.316406 269.171875 206.90625 268.992188 207.480469 268.753906 C 208.054688 268.515625 208.601562 268.222656 209.117188 267.878906 C 209.632812 267.535156 210.113281 267.140625 210.550781 266.703125 C 210.988281 266.261719 211.382812 265.785156 211.726562 265.269531 C 212.074219 264.75 212.363281 264.207031 212.601562 263.632812 C 212.839844 263.058594 213.019531 262.464844 213.140625 261.855469 C 213.261719 261.246094 213.320312 260.632812 213.320312 260.011719 C 213.320312 259.390625 213.261719 258.773438 213.140625 258.164062 C 213.019531 257.554688 212.839844 256.964844 212.601562 256.390625 C 212.363281 255.816406 212.074219 255.269531 211.726562 254.753906 C 211.382812 254.234375 210.988281 253.757812 210.550781 253.320312 C 210.113281 252.878906 209.632812 252.488281 209.117188 252.140625 C 208.601562 251.796875 208.054688 251.503906 207.480469 251.265625 C 206.90625 251.03125 206.316406 250.851562 205.707031 250.730469 C 205.097656 250.609375 204.484375 250.546875 203.863281 250.546875 Z M 203.863281 250.546875 " fill-opacity="1" fill-rule="nonzero"/></svg>