<svg xmlns="http://www.w3.org/2000/svg" xmlns:xlink="http://www.w3.org/1999/xlink" width="800" zoomAndPan="magnify" viewBox="0 0 600 599.999999" height="800" preserveAspectRatio="xMidYMid meet" version="1.0"><defs><clipPath id="aaf66c53aa"><path d="M 91 88.183594 L 509 88.183594 L 509 511.933594 L 91 511.933594 Z M 91 88.183594 " clip-rule="nonzero"/></clipPath></defs><g clip-path="url(#aaf66c53aa)"><path fill="#000000" d="M 474.652344 176.65625 L 429.808594 176.65625 L 429.808594 121.625 C 429.808594 103 415 88.183594 396.382812 88.183594 L 202.621094 88.183594 C 184.425781 88.183594 169.195312 103.421875 169.195312 121.625 L 169.195312 176.65625 L 124.773438 176.65625 C 106.582031 176.65625 91.351562 191.898438 91.351562 210.101562 L 91.351562 402.714844 C 91.351562 421.339844 106.160156 436.15625 124.773438 436.15625 L 169.621094 436.15625 L 169.621094 478.488281 C 169.621094 497.117188 184.425781 511.933594 203.042969 511.933594 L 396.808594 511.933594 C 415 511.933594 430.230469 496.691406 430.230469 478.488281 L 430.230469 436.15625 L 475.074219 436.15625 C 493.265625 436.15625 508.496094 420.917969 508.496094 402.714844 L 508.496094 210.101562 C 508.074219 191.472656 492.84375 176.65625 474.652344 176.65625 Z M 195.851562 121.625 C 195.851562 117.816406 198.8125 114.429688 203.042969 114.429688 L 396.808594 114.429688 C 400.613281 114.429688 404 117.816406 404 121.625 L 404 176.65625 L 195.851562 176.65625 Z M 403.578125 478.914062 C 403.578125 482.722656 400.613281 486.109375 396.382812 486.109375 L 202.621094 486.109375 C 198.8125 486.109375 195.425781 482.722656 195.425781 478.914062 L 195.425781 357.839844 L 403.152344 357.839844 L 403.152344 478.914062 Z M 481.421875 402.714844 C 481.421875 406.523438 478.460938 409.910156 474.230469 409.910156 L 429.808594 409.910156 L 429.808594 331.59375 L 169.195312 331.59375 L 169.195312 409.910156 L 124.773438 409.910156 C 120.96875 409.910156 117.582031 406.523438 117.582031 402.714844 L 117.582031 210.101562 C 117.582031 206.289062 120.96875 202.902344 124.773438 202.902344 L 474.652344 202.902344 C 478.460938 202.902344 481.84375 206.289062 481.84375 210.101562 Z M 481.421875 402.714844 " fill-opacity="1" fill-rule="nonzero"/></g><path fill="#000000" d="M 233.082031 409.0625 L 366.347656 409.0625 C 373.539062 409.0625 379.460938 403.136719 379.460938 395.941406 C 379.460938 388.742188 373.539062 382.816406 366.347656 382.816406 L 233.082031 382.816406 C 225.886719 382.816406 219.964844 388.742188 219.964844 395.941406 C 219.964844 403.136719 225.464844 409.0625 233.082031 409.0625 Z M 233.082031 409.0625 " fill-opacity="1" fill-rule="nonzero"/><path fill="#000000" d="M 233.082031 461.132812 L 366.347656 461.132812 C 373.539062 461.132812 379.460938 455.207031 379.460938 448.007812 C 379.460938 440.8125 373.539062 434.886719 366.347656 434.886719 L 233.082031 434.886719 C 225.886719 434.886719 219.964844 440.8125 219.964844 448.007812 C 219.964844 455.207031 225.464844 461.132812 233.082031 461.132812 Z M 233.082031 461.132812 " fill-opacity="1" fill-rule="nonzero"/></svg>