<svg xmlns="http://www.w3.org/2000/svg" xmlns:xlink="http://www.w3.org/1999/xlink" width="800" zoomAndPan="magnify" viewBox="0 0 600 599.999999" height="800" preserveAspectRatio="xMidYMid meet" version="1.0"><defs><clipPath id="224c40c820"><path d="M 135 62 L 464.945312 62 L 464.945312 499 L 135 499 Z M 135 62 " clip-rule="nonzero"/></clipPath></defs><g clip-path="url(#224c40c820)"><path fill="#000000" d="M 433.578125 186.140625 L 449.390625 186.140625 C 444.535156 224.933594 423.609375 392.347656 415.054688 460.847656 C 413.398438 474.015625 402.207031 483.90625 388.941406 483.90625 C 343.972656 483.90625 258.976562 483.90625 214.007812 483.90625 C 200.738281 483.90625 189.550781 474.015625 187.894531 460.847656 C 187.894531 460.847656 153.558594 186.140625 153.558594 186.140625 C 153.558594 186.140625 399.128906 186.140625 399.128906 186.140625 C 403.109375 186.140625 406.351562 182.894531 406.351562 178.917969 C 406.351562 174.925781 403.109375 171.691406 399.128906 171.691406 L 145.382812 171.691406 C 143.3125 171.691406 141.335938 172.582031 139.96875 174.136719 C 138.589844 175.683594 137.957031 177.75 138.214844 179.804688 C 138.214844 179.804688 163.847656 384.914062 173.570312 462.636719 C 176.117188 483.039062 193.449219 498.351562 214.007812 498.351562 C 258.976562 498.351562 343.972656 498.351562 388.941406 498.351562 C 409.5 498.351562 426.832031 483.039062 429.386719 462.636719 C 439.101562 384.914062 464.734375 179.804688 464.734375 179.804688 C 464.992188 177.75 464.355469 175.683594 462.980469 174.136719 C 461.613281 172.582031 459.636719 171.691406 457.566406 171.691406 L 433.578125 171.691406 C 429.589844 171.691406 426.355469 174.925781 426.355469 178.917969 C 426.355469 182.894531 429.589844 186.140625 433.578125 186.140625 Z M 294.246094 256.960938 L 294.246094 413.070312 C 294.246094 417.050781 297.492188 420.296875 301.46875 420.296875 C 305.457031 420.296875 308.691406 417.050781 308.691406 413.070312 L 308.691406 256.960938 C 308.691406 252.980469 305.457031 249.738281 301.46875 249.738281 C 297.492188 249.738281 294.246094 252.980469 294.246094 256.960938 Z M 210.894531 257.828125 L 223.71875 413.40625 C 224.050781 417.371094 227.542969 420.328125 231.507812 420.007812 C 235.488281 419.671875 238.441406 416.183594 238.121094 412.214844 L 225.296875 256.636719 C 224.964844 252.660156 221.476562 249.703125 217.496094 250.027344 C 213.53125 250.359375 210.574219 253.847656 210.894531 257.828125 Z M 375.519531 256.636719 L 362.695312 412.214844 C 362.371094 416.183594 365.328125 419.671875 369.296875 420.007812 C 373.273438 420.328125 376.761719 417.371094 377.097656 413.40625 L 389.917969 257.828125 C 390.242188 253.847656 387.285156 250.359375 383.320312 250.027344 C 379.339844 249.703125 375.851562 252.660156 375.519531 256.636719 Z M 247.132812 122.429688 L 141.023438 150.867188 C 137.179688 151.890625 134.890625 155.855469 135.925781 159.714844 C 136.945312 163.558594 140.914062 165.847656 144.769531 164.8125 L 446.3125 84.011719 C 450.167969 82.980469 452.457031 79.011719 451.421875 75.167969 C 450.390625 71.3125 446.421875 69.023438 442.578125 70.054688 L 336.472656 98.492188 L 328.238281 67.765625 C 327.203125 63.910156 323.246094 61.632812 319.390625 62.667969 L 244.007812 82.859375 C 240.152344 83.890625 237.863281 87.859375 238.898438 91.714844 Z M 322.515625 102.226562 L 316.160156 78.492188 C 316.160156 78.492188 254.722656 94.949219 254.722656 94.949219 L 261.089844 118.683594 Z M 322.515625 102.226562 " fill-opacity="1" fill-rule="evenodd"/></g></svg>