<svg xmlns="http://www.w3.org/2000/svg" xmlns:xlink="http://www.w3.org/1999/xlink" width="800" zoomAndPan="magnify" viewBox="0 0 600 599.999999" height="800" preserveAspectRatio="xMidYMid meet" version="1.0"><path fill="#000000" d="M 315 75.09375 C 190.789062 75.09375 90.09375 175.789062 90.09375 300 C 90.09375 424.210938 190.789062 524.90625 315 524.90625 C 439.210938 524.90625 539.90625 424.210938 539.90625 300 C 539.90625 175.789062 439.210938 75.09375 315 75.09375 Z M 315 498.941406 C 205.128906 498.941406 116.058594 409.871094 116.058594 300 C 116.058594 190.128906 205.128906 101.058594 315 101.058594 C 424.871094 101.058594 513.941406 190.128906 513.941406 300 C 513.941406 409.871094 424.871094 498.941406 315 498.941406 Z M 315 498.941406 " fill-opacity="1" fill-rule="nonzero"/><path fill="#000000" d="M 350.75 300 C 350.75 301.171875 350.691406 302.339844 350.574219 303.503906 C 350.460938 304.667969 350.289062 305.824219 350.0625 306.972656 C 349.832031 308.121094 349.550781 309.257812 349.207031 310.378906 C 348.871094 311.496094 348.476562 312.597656 348.027344 313.679688 C 347.578125 314.761719 347.078125 315.820312 346.527344 316.851562 C 345.976562 317.882812 345.375 318.886719 344.722656 319.859375 C 344.074219 320.835938 343.375 321.773438 342.632812 322.679688 C 341.890625 323.582031 341.105469 324.449219 340.277344 325.277344 C 339.449219 326.105469 338.582031 326.890625 337.679688 327.632812 C 336.773438 328.375 335.835938 329.074219 334.859375 329.722656 C 333.886719 330.375 332.882812 330.976562 331.851562 331.527344 C 330.820312 332.078125 329.761719 332.578125 328.679688 333.027344 C 327.597656 333.476562 326.496094 333.867188 325.378906 334.207031 C 324.257812 334.546875 323.121094 334.832031 321.972656 335.0625 C 320.824219 335.289062 319.667969 335.460938 318.503906 335.574219 C 317.339844 335.691406 316.171875 335.75 315 335.75 C 313.828125 335.75 312.660156 335.691406 311.496094 335.574219 C 310.332031 335.460938 309.175781 335.289062 308.027344 335.0625 C 306.878906 334.832031 305.742188 334.546875 304.625 334.207031 C 303.503906 333.867188 302.402344 333.476562 301.320312 333.027344 C 300.238281 332.578125 299.179688 332.078125 298.148438 331.527344 C 297.117188 330.976562 296.113281 330.375 295.140625 329.722656 C 294.167969 329.074219 293.226562 328.375 292.320312 327.632812 C 291.417969 326.890625 290.550781 326.105469 289.722656 325.277344 C 288.894531 324.449219 288.109375 323.582031 287.367188 322.679688 C 286.625 321.773438 285.925781 320.835938 285.277344 319.859375 C 284.625 318.886719 284.023438 317.882812 283.472656 316.851562 C 282.921875 315.820312 282.421875 314.761719 281.972656 313.679688 C 281.523438 312.597656 281.132812 311.496094 280.792969 310.378906 C 280.453125 309.257812 280.167969 308.121094 279.9375 306.972656 C 279.710938 305.824219 279.539062 304.667969 279.425781 303.503906 C 279.308594 302.339844 279.253906 301.171875 279.253906 300 C 279.253906 298.828125 279.308594 297.660156 279.425781 296.496094 C 279.539062 295.332031 279.710938 294.175781 279.9375 293.027344 C 280.167969 291.878906 280.453125 290.742188 280.792969 289.621094 C 281.132812 288.503906 281.523438 287.402344 281.972656 286.320312 C 282.421875 285.238281 282.921875 284.179688 283.472656 283.148438 C 284.023438 282.117188 284.625 281.113281 285.277344 280.140625 C 285.925781 279.164062 286.625 278.226562 287.367188 277.320312 C 288.109375 276.417969 288.894531 275.550781 289.722656 274.722656 C 290.550781 273.894531 291.417969 273.109375 292.320312 272.367188 C 293.226562 271.625 294.167969 270.925781 295.140625 270.277344 C 296.113281 269.625 297.117188 269.023438 298.148438 268.472656 C 299.179688 267.921875 300.238281 267.421875 301.320312 266.972656 C 302.402344 266.523438 303.503906 266.132812 304.625 265.792969 C 305.742188 265.453125 306.878906 265.167969 308.027344 264.9375 C 309.175781 264.710938 310.332031 264.539062 311.496094 264.425781 C 312.660156 264.308594 313.828125 264.25 315 264.25 C 316.171875 264.25 317.339844 264.308594 318.503906 264.425781 C 319.667969 264.539062 320.824219 264.710938 321.972656 264.9375 C 323.121094 265.167969 324.257812 265.453125 325.378906 265.792969 C 326.496094 266.132812 327.597656 266.523438 328.679688 266.972656 C 329.761719 267.421875 330.820312 267.921875 331.851562 268.472656 C 332.882812 269.023438 333.886719 269.625 334.859375 270.277344 C 335.835938 270.925781 336.773438 271.625 337.679688 272.367188 C 338.582031 273.109375 339.449219 273.894531 340.277344 274.722656 C 341.105469 275.550781 341.890625 276.417969 342.632812 277.320312 C 343.375 278.226562 344.074219 279.164062 344.722656 280.140625 C 345.375 281.113281 345.976562 282.117188 346.527344 283.148438 C 347.078125 284.179688 347.578125 285.238281 348.027344 286.320312 C 348.476562 287.402344 348.867188 288.503906 349.207031 289.621094 C 349.550781 290.742188 349.832031 291.878906 350.0625 293.027344 C 350.289062 294.175781 350.460938 295.332031 350.574219 296.496094 C 350.691406 297.660156 350.75 298.828125 350.75 300 Z M 350.75 300 " fill-opacity="1" fill-rule="nonzero"/><path fill="#000000" d="M 229.25 300 C 229.25 301.171875 229.191406 302.339844 229.074219 303.503906 C 228.960938 304.667969 228.789062 305.824219 228.5625 306.972656 C 228.332031 308.121094 228.050781 309.257812 227.707031 310.378906 C 227.367188 311.496094 226.976562 312.597656 226.527344 313.679688 C 226.078125 314.761719 225.578125 315.820312 225.027344 316.851562 C 224.476562 317.882812 223.875 318.886719 223.222656 319.859375 C 222.574219 320.835938 221.875 321.773438 221.132812 322.679688 C 220.390625 323.582031 219.605469 324.449219 218.777344 325.277344 C 217.949219 326.105469 217.082031 326.890625 216.179688 327.632812 C 215.273438 328.375 214.335938 329.074219 213.359375 329.722656 C 212.386719 330.375 211.382812 330.976562 210.351562 331.527344 C 209.320312 332.078125 208.261719 332.578125 207.179688 333.027344 C 206.097656 333.476562 204.996094 333.867188 203.878906 334.207031 C 202.757812 334.546875 201.621094 334.832031 200.472656 335.0625 C 199.324219 335.289062 198.167969 335.460938 197.003906 335.574219 C 195.839844 335.691406 194.671875 335.75 193.5 335.75 C 192.328125 335.75 191.160156 335.691406 189.996094 335.574219 C 188.832031 335.460938 187.675781 335.289062 186.527344 335.0625 C 185.378906 334.832031 184.242188 334.546875 183.121094 334.207031 C 182.003906 333.867188 180.902344 333.476562 179.820312 333.027344 C 178.738281 332.578125 177.679688 332.078125 176.648438 331.527344 C 175.617188 330.976562 174.613281 330.375 173.640625 329.722656 C 172.667969 329.074219 171.726562 328.375 170.820312 327.632812 C 169.917969 326.890625 169.050781 326.105469 168.222656 325.277344 C 167.394531 324.449219 166.609375 323.582031 165.867188 322.679688 C 165.125 321.773438 164.425781 320.835938 163.777344 319.859375 C 163.125 318.886719 162.523438 317.882812 161.972656 316.851562 C 161.421875 315.820312 160.921875 314.761719 160.472656 313.679688 C 160.023438 312.597656 159.632812 311.496094 159.292969 310.378906 C 158.953125 309.257812 158.667969 308.121094 158.4375 306.972656 C 158.210938 305.824219 158.039062 304.667969 157.925781 303.503906 C 157.808594 302.339844 157.753906 301.171875 157.753906 300 C 157.753906 298.828125 157.808594 297.660156 157.925781 296.496094 C 158.039062 295.332031 158.210938 294.175781 158.4375 293.027344 C 158.667969 291.878906 158.953125 290.742188 159.292969 289.621094 C 159.632812 288.503906 160.023438 287.402344 160.472656 286.320312 C 160.921875 285.238281 161.421875 284.179688 161.972656 283.148438 C 162.523438 282.117188 163.125 281.113281 163.777344 280.140625 C 164.425781 279.164062 165.125 278.226562 165.867188 277.320312 C 166.609375 276.417969 167.394531 275.550781 168.222656 274.722656 C 169.050781 273.894531 169.917969 273.109375 170.820312 272.367188 C 171.726562 271.625 172.667969 270.925781 173.640625 270.277344 C 174.613281 269.625 175.617188 269.023438 176.648438 268.472656 C 177.679688 267.921875 178.738281 267.421875 179.820312 266.972656 C 180.902344 266.523438 182.003906 266.132812 183.121094 265.792969 C 184.242188 265.453125 185.378906 265.167969 186.527344 264.9375 C 187.675781 264.710938 188.832031 264.539062 189.996094 264.425781 C 191.160156 264.308594 192.328125 264.25 193.5 264.25 C 194.671875 264.25 195.839844 264.308594 197.003906 264.425781 C 198.167969 264.539062 199.324219 264.710938 200.472656 264.9375 C 201.621094 265.167969 202.757812 265.453125 203.878906 265.792969 C 204.996094 266.132812 206.097656 266.523438 207.179688 266.972656 C 208.261719 267.421875 209.320312 267.921875 210.351562 268.472656 C 211.382812 269.023438 212.386719 269.625 213.359375 270.277344 C 214.335938 270.925781 215.273438 271.625 216.179688 272.367188 C 217.082031 273.109375 217.949219 273.894531 218.777344 274.722656 C 219.605469 275.550781 220.390625 276.417969 221.132812 277.320312 C 221.875 278.226562 222.574219 279.164062 223.222656 280.140625 C 223.875 281.113281 224.476562 282.117188 225.027344 283.148438 C 225.578125 284.179688 226.078125 285.238281 226.527344 286.320312 C 226.976562 287.402344 227.367188 288.503906 227.707031 289.621094 C 228.050781 290.742188 228.332031 291.878906 228.5625 293.027344 C 228.789062 294.175781 228.960938 295.332031 229.074219 296.496094 C 229.191406 297.660156 229.25 298.828125 229.25 300 Z M 229.25 300 " fill-opacity="1" fill-rule="nonzero"/><path fill="#000000" d="M 472.25 300 C 472.25 301.171875 472.191406 302.339844 472.074219 303.503906 C 471.960938 304.667969 471.789062 305.824219 471.5625 306.972656 C 471.332031 308.121094 471.050781 309.257812 470.710938 310.378906 C 470.367188 311.496094 469.976562 312.597656 469.527344 313.679688 C 469.078125 314.761719 468.578125 315.820312 468.027344 316.851562 C 467.476562 317.882812 466.875 318.886719 466.222656 319.859375 C 465.574219 320.835938 464.875 321.773438 464.132812 322.679688 C 463.390625 323.582031 462.605469 324.449219 461.777344 325.277344 C 460.949219 326.105469 460.082031 326.890625 459.179688 327.632812 C 458.273438 328.375 457.335938 329.074219 456.359375 329.722656 C 455.386719 330.375 454.382812 330.976562 453.351562 331.527344 C 452.320312 332.078125 451.261719 332.578125 450.179688 333.027344 C 449.097656 333.476562 447.996094 333.867188 446.878906 334.207031 C 445.757812 334.546875 444.621094 334.832031 443.472656 335.0625 C 442.324219 335.289062 441.167969 335.460938 440.003906 335.574219 C 438.839844 335.691406 437.671875 335.75 436.5 335.75 C 435.328125 335.75 434.160156 335.691406 432.996094 335.574219 C 431.832031 335.460938 430.675781 335.289062 429.527344 335.0625 C 428.378906 334.832031 427.242188 334.546875 426.121094 334.207031 C 425.003906 333.867188 423.902344 333.476562 422.820312 333.027344 C 421.738281 332.578125 420.679688 332.078125 419.648438 331.527344 C 418.617188 330.976562 417.613281 330.375 416.640625 329.722656 C 415.667969 329.074219 414.726562 328.375 413.820312 327.632812 C 412.917969 326.890625 412.050781 326.105469 411.222656 325.277344 C 410.394531 324.449219 409.609375 323.582031 408.867188 322.679688 C 408.125 321.773438 407.425781 320.835938 406.777344 319.859375 C 406.125 318.886719 405.523438 317.882812 404.972656 316.851562 C 404.421875 315.820312 403.921875 314.761719 403.472656 313.679688 C 403.023438 312.597656 402.632812 311.496094 402.292969 310.378906 C 401.953125 309.257812 401.667969 308.121094 401.4375 306.972656 C 401.210938 305.824219 401.039062 304.667969 400.925781 303.503906 C 400.808594 302.339844 400.753906 301.171875 400.753906 300 C 400.753906 298.828125 400.808594 297.660156 400.925781 296.496094 C 401.039062 295.332031 401.210938 294.175781 401.4375 293.027344 C 401.667969 291.878906 401.953125 290.742188 402.292969 289.621094 C 402.632812 288.503906 403.023438 287.402344 403.472656 286.320312 C 403.921875 285.238281 404.421875 284.179688 404.972656 283.148438 C 405.523438 282.117188 406.125 281.113281 406.777344 280.140625 C 407.425781 279.164062 408.125 278.226562 408.867188 277.320312 C 409.609375 276.417969 410.394531 275.550781 411.222656 274.722656 C 412.050781 273.894531 412.917969 273.109375 413.820312 272.367188 C 414.726562 271.625 415.667969 270.925781 416.640625 270.277344 C 417.613281 269.625 418.617188 269.023438 419.648438 268.472656 C 420.679688 267.921875 421.738281 267.421875 422.820312 266.972656 C 423.902344 266.523438 425.003906 266.132812 426.121094 265.792969 C 427.242188 265.453125 428.378906 265.167969 429.527344 264.9375 C 430.675781 264.710938 431.832031 264.539062 432.996094 264.425781 C 434.160156 264.308594 435.328125 264.25 436.5 264.25 C 437.671875 264.25 438.839844 264.308594 440.003906 264.425781 C 441.167969 264.539062 442.324219 264.710938 443.472656 264.9375 C 444.621094 265.167969 445.757812 265.453125 446.878906 265.792969 C 447.996094 266.132812 449.097656 266.523438 450.179688 266.972656 C 451.261719 267.421875 452.320312 267.921875 453.351562 268.472656 C 454.382812 269.023438 455.386719 269.625 456.359375 270.277344 C 457.335938 270.925781 458.273438 271.625 459.179688 272.367188 C 460.082031 273.109375 460.949219 273.894531 461.777344 274.722656 C 462.605469 275.550781 463.390625 276.417969 464.132812 277.320312 C 464.875 278.226562 465.574219 279.164062 466.222656 280.140625 C 466.875 281.113281 467.476562 282.117188 468.027344 283.148438 C 468.578125 284.179688 469.078125 285.238281 469.527344 286.320312 C 469.976562 287.402344 470.367188 288.503906 470.710938 289.621094 C 471.050781 290.742188 471.332031 291.878906 471.5625 293.027344 C 471.789062 294.175781 471.960938 295.332031 472.074219 296.496094 C 472.191406 297.660156 472.25 298.828125 472.25 300 Z M 472.25 300 " fill-opacity="1" fill-rule="nonzero"/></svg>