<svg xmlns="http://www.w3.org/2000/svg" xmlns:xlink="http://www.w3.org/1999/xlink" width="800" zoomAndPan="magnify" viewBox="0 0 600 599.999999" height="800" preserveAspectRatio="xMidYMid meet" version="1.0"><defs><clipPath id="4aa595417d"><path d="M 26.058594 393 L 574.308594 393 L 574.308594 483.007812 L 26.058594 483.007812 Z M 26.058594 393 " clip-rule="nonzero"/></clipPath><clipPath id="3a9295a27f"><path d="M 99 117.144531 L 502 117.144531 L 502 372 L 99 372 Z M 99 117.144531 " clip-rule="nonzero"/></clipPath></defs><g clip-path="url(#4aa595417d)"><path fill="#000000" d="M 379.28125 459.980469 L 221.085938 459.980469 C 220 459.980469 219.300781 458.832031 219.800781 457.867188 L 231.980469 434.421875 C 232.226562 433.941406 232.726562 433.640625 233.265625 433.640625 L 367.105469 433.640625 C 367.644531 433.640625 368.140625 433.941406 368.390625 434.421875 L 380.566406 457.867188 C 381.070312 458.832031 380.371094 459.980469 379.28125 459.980469 Z M 570.816406 462.640625 L 505.304688 397.125 C 503.066406 394.882812 500.035156 393.628906 496.871094 393.628906 L 103.5 393.628906 C 100.335938 393.628906 97.300781 394.882812 95.0625 397.125 L 29.554688 462.640625 C 27.316406 464.878906 26.058594 467.910156 26.058594 471.078125 C 26.058594 477.667969 31.402344 483.007812 37.988281 483.007812 L 562.382812 483.007812 C 568.96875 483.007812 574.308594 477.667969 574.308594 471.078125 C 574.308594 467.910156 573.054688 464.878906 570.816406 462.640625 " fill-opacity="1" fill-rule="nonzero"/></g><g clip-path="url(#3a9295a27f)"><path fill="#000000" d="M 482.203125 117.277344 L 118.167969 117.277344 C 107.632812 117.277344 99.015625 125.898438 99.015625 136.429688 L 99.015625 352.585938 C 99.015625 363.121094 107.632812 371.738281 118.167969 371.738281 L 482.203125 371.738281 C 492.738281 371.738281 501.355469 363.121094 501.355469 352.585938 L 501.355469 136.429688 C 501.355469 125.898438 492.738281 117.277344 482.203125 117.277344 Z M 479.1875 139.445312 L 479.1875 349.570312 L 121.179688 349.570312 L 121.179688 139.445312 L 479.1875 139.445312 " fill-opacity="1" fill-rule="nonzero"/></g></svg>