<svg xmlns="http://www.w3.org/2000/svg" xmlns:xlink="http://www.w3.org/1999/xlink" width="800" zoomAndPan="magnify" viewBox="0 0 600 599.999999" height="800" preserveAspectRatio="xMidYMid meet" version="1.0"><defs><clipPath id="84eba35f93"><path d="M 118.804688 93.242188 L 481.054688 93.242188 L 481.054688 506.492188 L 118.804688 506.492188 Z M 118.804688 93.242188 " clip-rule="nonzero"/></clipPath></defs><g clip-path="url(#84eba35f93)"><path fill="#000000" d="M 464.71875 194.839844 L 135.140625 194.839844 L 153.789062 113.546875 C 154.542969 110.25 157.472656 107.917969 160.847656 107.917969 L 191.253906 107.917969 C 195.253906 107.917969 198.5 104.675781 198.5 100.675781 C 198.5 96.675781 195.253906 93.433594 191.253906 93.433594 C 191.253906 93.433594 173.265625 93.433594 160.847656 93.433594 C 150.71875 93.433594 141.929688 100.429688 139.664062 110.308594 L 119.023438 200.308594 C 118.941406 200.632812 118.882812 200.964844 118.847656 201.308594 C 118.8125 201.609375 118.796875 201.914062 118.804688 202.21875 L 118.804688 274.515625 C 118.804688 280.078125 120.898438 285.15625 124.339844 289 C 120.898438 292.847656 118.804688 297.925781 118.804688 303.488281 L 118.804688 332.460938 C 118.804688 336.460938 122.050781 339.703125 126.050781 339.703125 C 130.046875 339.703125 133.292969 336.460938 133.292969 332.460938 L 133.292969 303.488281 C 133.292969 299.488281 136.539062 296.246094 140.539062 296.246094 C 197.109375 296.246094 402.75 296.246094 459.320312 296.246094 C 463.320312 296.246094 466.5625 299.488281 466.5625 303.488281 C 466.5625 303.488281 466.5625 375.921875 466.5625 375.921875 C 466.5625 379.917969 463.320312 383.164062 459.320312 383.164062 C 459.320312 383.164062 140.539062 383.164062 140.539062 383.164062 C 136.539062 383.164062 133.292969 379.917969 133.292969 375.921875 L 133.292969 361.433594 C 133.292969 357.4375 130.046875 354.191406 126.050781 354.191406 C 122.050781 354.191406 118.804688 357.4375 118.804688 361.433594 L 118.804688 375.921875 C 118.804688 381.484375 120.898438 386.5625 124.339844 390.40625 C 120.78125 394.382812 118.804688 399.535156 118.804688 404.894531 C 118.804688 419.28125 118.804688 441.210938 118.804688 455.597656 C 118.804688 461.363281 121.09375 466.890625 125.171875 470.960938 C 129.246094 475.039062 134.773438 477.328125 140.539062 477.328125 C 140.539062 477.328125 140.539062 499.058594 140.539062 499.058594 C 140.539062 503.054688 143.785156 506.300781 147.785156 506.300781 L 452.074219 506.300781 C 456.074219 506.300781 459.320312 503.054688 459.320312 499.058594 L 459.320312 477.328125 C 471.324219 477.328125 481.054688 467.597656 481.054688 455.597656 L 481.054688 441.109375 C 481.054688 437.113281 477.808594 433.867188 473.808594 433.867188 C 469.808594 433.867188 466.5625 437.113281 466.5625 441.109375 L 466.5625 455.597656 C 466.5625 459.59375 463.320312 462.839844 459.320312 462.839844 C 402.75 462.839844 197.109375 462.839844 140.539062 462.839844 C 138.621094 462.839844 136.773438 462.082031 135.417969 460.71875 C 134.054688 459.363281 133.292969 457.515625 133.292969 455.597656 L 133.292969 404.894531 C 133.292969 402.976562 134.054688 401.128906 135.417969 399.773438 C 136.773438 398.410156 138.621094 397.652344 140.539062 397.652344 C 140.539062 397.652344 459.320312 397.652344 459.320312 397.652344 C 463.320312 397.652344 466.5625 400.894531 466.5625 404.894531 L 466.5625 419.382812 C 466.5625 423.378906 469.808594 426.625 473.808594 426.625 C 477.808594 426.625 481.054688 423.378906 481.054688 419.382812 L 481.054688 404.894531 C 481.054688 399.332031 478.960938 394.253906 475.519531 390.40625 C 478.960938 386.5625 481.054688 381.484375 481.054688 375.921875 L 481.054688 303.488281 C 481.054688 297.925781 478.960938 292.847656 475.519531 289 C 479.078125 285.023438 481.054688 279.875 481.054688 274.515625 C 481.054688 264.433594 481.054688 252.785156 481.054688 252.785156 C 481.054688 248.785156 477.808594 245.542969 473.808594 245.542969 C 469.808594 245.542969 466.5625 248.785156 466.5625 252.785156 C 466.5625 252.785156 466.5625 264.433594 466.5625 274.515625 C 466.5625 276.433594 465.804688 278.28125 464.441406 279.636719 C 463.085938 280.996094 461.238281 281.757812 459.320312 281.757812 C 402.75 281.757812 197.109375 281.757812 140.539062 281.757812 C 136.539062 281.757812 133.292969 278.511719 133.292969 274.515625 C 133.292969 274.515625 133.292969 209.324219 133.292969 209.324219 C 133.292969 209.324219 466.5625 209.324219 466.5625 209.324219 C 466.5625 209.324219 466.5625 231.054688 466.5625 231.054688 C 466.5625 235.054688 469.808594 238.296875 473.808594 238.296875 C 477.808594 238.296875 481.054688 235.054688 481.054688 231.054688 L 481.054688 202.21875 C 481.0625 201.914062 481.046875 201.609375 481.011719 201.308594 C 480.976562 200.964844 480.917969 200.632812 480.835938 200.308594 L 460.195312 110.308594 C 457.929688 100.429688 449.140625 93.433594 439.011719 93.433594 L 249.214844 93.433594 C 245.214844 93.433594 241.96875 96.675781 241.96875 100.675781 C 241.96875 104.675781 245.214844 107.917969 249.214844 107.917969 L 439.011719 107.917969 C 442.386719 107.917969 445.316406 110.25 446.066406 113.546875 Z M 444.828125 477.328125 L 155.03125 477.328125 L 155.03125 491.8125 C 155.03125 491.8125 444.828125 491.8125 444.828125 491.8125 Z M 430.339844 419.382812 C 422.339844 419.382812 415.847656 425.871094 415.847656 433.867188 C 415.847656 441.863281 422.339844 448.355469 430.339844 448.355469 C 438.335938 448.355469 444.828125 441.863281 444.828125 433.867188 C 444.828125 425.871094 438.335938 419.382812 430.339844 419.382812 Z M 386.871094 419.382812 C 378.871094 419.382812 372.378906 425.871094 372.378906 433.867188 C 372.378906 441.863281 378.871094 448.355469 386.871094 448.355469 C 394.867188 448.355469 401.359375 441.863281 401.359375 433.867188 C 401.359375 425.871094 394.867188 419.382812 386.871094 419.382812 Z M 155.03125 441.109375 L 241.96875 441.109375 C 245.96875 441.109375 249.214844 437.867188 249.214844 433.867188 C 249.214844 429.871094 245.96875 426.625 241.96875 426.625 L 155.03125 426.625 C 151.03125 426.625 147.785156 429.871094 147.785156 433.867188 C 147.785156 437.867188 151.03125 441.109375 155.03125 441.109375 Z M 430.339844 328.839844 C 422.339844 328.839844 415.847656 335.328125 415.847656 343.328125 C 415.847656 351.324219 422.339844 357.8125 430.339844 357.8125 C 438.335938 357.8125 444.828125 351.324219 444.828125 343.328125 C 444.828125 335.328125 438.335938 328.839844 430.339844 328.839844 Z M 386.871094 328.839844 C 378.871094 328.839844 372.378906 335.328125 372.378906 343.328125 C 372.378906 351.324219 378.871094 357.8125 386.871094 357.8125 C 394.867188 357.8125 401.359375 351.324219 401.359375 343.328125 C 401.359375 335.328125 394.867188 328.839844 386.871094 328.839844 Z M 155.03125 346.949219 L 241.96875 346.949219 C 245.96875 346.949219 249.214844 343.703125 249.214844 339.703125 C 249.214844 335.707031 245.96875 332.460938 241.96875 332.460938 L 155.03125 332.460938 C 151.03125 332.460938 147.785156 335.707031 147.785156 339.703125 C 147.785156 343.703125 151.03125 346.949219 155.03125 346.949219 Z M 430.339844 234.675781 C 422.339844 234.675781 415.847656 241.167969 415.847656 249.164062 C 415.847656 257.160156 422.339844 263.648438 430.339844 263.648438 C 438.335938 263.648438 444.828125 257.160156 444.828125 249.164062 C 444.828125 241.167969 438.335938 234.675781 430.339844 234.675781 Z M 386.871094 234.675781 C 378.871094 234.675781 372.378906 241.167969 372.378906 249.164062 C 372.378906 257.160156 378.871094 263.648438 386.871094 263.648438 C 394.867188 263.648438 401.359375 257.160156 401.359375 249.164062 C 401.359375 241.167969 394.867188 234.675781 386.871094 234.675781 Z M 155.03125 252.785156 L 241.96875 252.785156 C 245.96875 252.785156 249.214844 249.539062 249.214844 245.542969 C 249.214844 241.542969 245.96875 238.296875 241.96875 238.296875 L 155.03125 238.296875 C 151.03125 238.296875 147.785156 241.542969 147.785156 245.542969 C 147.785156 249.539062 151.03125 252.785156 155.03125 252.785156 Z M 212.988281 107.917969 L 227.480469 107.917969 C 231.480469 107.917969 234.722656 104.675781 234.722656 100.675781 C 234.722656 96.675781 231.480469 93.433594 227.480469 93.433594 L 212.988281 93.433594 C 208.988281 93.433594 205.746094 96.675781 205.746094 100.675781 C 205.746094 104.675781 208.988281 107.917969 212.988281 107.917969 Z M 212.988281 107.917969 " fill-opacity="1" fill-rule="evenodd"/></g></svg>