<svg xmlns="http://www.w3.org/2000/svg" xmlns:xlink="http://www.w3.org/1999/xlink" width="800" zoomAndPan="magnify" viewBox="0 0 600 599.999999" height="800" preserveAspectRatio="xMidYMid meet" version="1.0"><defs><clipPath id="4776af1f6d"><path d="M 79.363281 122.386719 L 520.363281 122.386719 L 520.363281 477.886719 L 79.363281 477.886719 Z M 79.363281 122.386719 " clip-rule="nonzero"/></clipPath></defs><g clip-path="url(#4776af1f6d)"><path fill="#000000" d="M 95.542969 122.386719 C 86.625 122.386719 79.445312 129.570312 79.445312 138.488281 L 79.445312 400.359375 C 79.445312 409.277344 86.625 416.453125 95.542969 416.453125 L 250.089844 416.453125 L 250.089844 465.898438 L 232.558594 465.898438 C 229.316406 465.898438 226.703125 468.511719 226.703125 471.753906 C 226.703125 474.996094 229.316406 477.605469 232.558594 477.605469 L 367.4375 477.605469 C 370.679688 477.605469 373.289062 474.996094 373.289062 471.753906 C 373.289062 468.511719 370.679688 465.898438 367.4375 465.898438 L 349.90625 465.898438 L 349.90625 416.453125 L 504.453125 416.453125 C 513.371094 416.453125 520.550781 409.277344 520.550781 400.359375 L 520.550781 138.488281 C 520.550781 129.570312 513.371094 122.386719 504.453125 122.386719 Z M 99.945312 142.320312 L 500.050781 142.320312 L 500.050781 394.847656 L 99.945312 394.847656 Z M 99.945312 142.320312 " fill-opacity="1" fill-rule="nonzero"/></g></svg>