<svg xmlns="http://www.w3.org/2000/svg" xmlns:xlink="http://www.w3.org/1999/xlink" width="800" zoomAndPan="magnify" viewBox="0 0 600 599.999999" height="800" preserveAspectRatio="xMidYMid meet" version="1.0"><defs><clipPath id="08ce67aca2"><path d="M 76.652344 115.179688 L 523.652344 115.179688 L 523.652344 484.929688 L 76.652344 484.929688 Z M 76.652344 115.179688 " clip-rule="nonzero"/></clipPath></defs><g clip-path="url(#08ce67aca2)"><path fill="#000000" d="M 130.621094 176.804688 C 130.621094 177.308594 130.570312 177.808594 130.472656 178.304688 C 130.375 178.800781 130.226562 179.285156 130.035156 179.75 C 129.839844 180.21875 129.601562 180.664062 129.320312 181.082031 C 129.039062 181.503906 128.722656 181.894531 128.363281 182.25 C 128.003906 182.609375 127.617188 182.925781 127.195312 183.207031 C 126.773438 183.488281 126.332031 183.726562 125.863281 183.921875 C 125.394531 184.113281 124.914062 184.261719 124.417969 184.359375 C 123.921875 184.457031 123.421875 184.507812 122.914062 184.507812 C 122.410156 184.507812 121.90625 184.457031 121.410156 184.359375 C 120.914062 184.261719 120.433594 184.113281 119.964844 183.921875 C 119.496094 183.726562 119.054688 183.488281 118.632812 183.207031 C 118.210938 182.925781 117.824219 182.609375 117.464844 182.25 C 117.109375 181.894531 116.789062 181.503906 116.507812 181.082031 C 116.226562 180.664062 115.988281 180.21875 115.792969 179.75 C 115.601562 179.285156 115.457031 178.800781 115.355469 178.304688 C 115.257812 177.808594 115.207031 177.308594 115.207031 176.804688 C 115.207031 176.296875 115.257812 175.796875 115.355469 175.300781 C 115.457031 174.804688 115.601562 174.324219 115.792969 173.855469 C 115.988281 173.386719 116.226562 172.945312 116.507812 172.523438 C 116.789062 172.101562 117.109375 171.714844 117.464844 171.355469 C 117.824219 171 118.210938 170.679688 118.632812 170.398438 C 119.054688 170.117188 119.496094 169.878906 119.964844 169.6875 C 120.433594 169.492188 120.914062 169.347656 121.410156 169.25 C 121.90625 169.148438 122.410156 169.101562 122.914062 169.101562 C 123.421875 169.101562 123.921875 169.148438 124.417969 169.25 C 124.914062 169.347656 125.394531 169.492188 125.863281 169.6875 C 126.332031 169.878906 126.773438 170.117188 127.195312 170.398438 C 127.617188 170.679688 128.003906 171 128.363281 171.355469 C 128.722656 171.714844 129.039062 172.101562 129.320312 172.523438 C 129.601562 172.945312 129.839844 173.386719 130.035156 173.855469 C 130.226562 174.324219 130.375 174.804688 130.472656 175.300781 C 130.570312 175.796875 130.621094 176.296875 130.621094 176.804688 Z M 122.914062 415.601562 C 122.410156 415.601562 121.90625 415.648438 121.410156 415.75 C 120.914062 415.847656 120.433594 415.992188 119.964844 416.1875 C 119.496094 416.378906 119.054688 416.617188 118.632812 416.898438 C 118.210938 417.179688 117.824219 417.5 117.464844 417.855469 C 117.109375 418.214844 116.789062 418.601562 116.507812 419.023438 C 116.226562 419.445312 115.988281 419.886719 115.792969 420.355469 C 115.601562 420.824219 115.457031 421.304688 115.355469 421.800781 C 115.257812 422.296875 115.207031 422.796875 115.207031 423.304688 C 115.207031 423.808594 115.257812 424.308594 115.355469 424.804688 C 115.457031 425.300781 115.601562 425.785156 115.792969 426.25 C 115.988281 426.71875 116.226562 427.164062 116.507812 427.582031 C 116.789062 428.003906 117.109375 428.394531 117.464844 428.75 C 117.824219 429.109375 118.210938 429.425781 118.632812 429.707031 C 119.054688 429.988281 119.496094 430.226562 119.964844 430.421875 C 120.433594 430.613281 120.914062 430.761719 121.410156 430.859375 C 121.90625 430.957031 122.410156 431.007812 122.914062 431.007812 C 123.421875 431.007812 123.921875 430.957031 124.417969 430.859375 C 124.914062 430.761719 125.394531 430.613281 125.863281 430.421875 C 126.332031 430.226562 126.773438 429.988281 127.195312 429.707031 C 127.617188 429.425781 128.003906 429.109375 128.363281 428.75 C 128.722656 428.394531 129.039062 428.003906 129.320312 427.582031 C 129.601562 427.164062 129.839844 426.71875 130.035156 426.25 C 130.226562 425.785156 130.375 425.300781 130.472656 424.804688 C 130.570312 424.308594 130.621094 423.808594 130.621094 423.304688 C 130.621094 422.796875 130.570312 422.296875 130.472656 421.800781 C 130.375 421.304688 130.226562 420.824219 130.035156 420.355469 C 129.839844 419.886719 129.601562 419.445312 129.320312 419.023438 C 129.039062 418.601562 128.722656 418.214844 128.363281 417.855469 C 128.003906 417.5 127.617188 417.179688 127.195312 416.898438 C 126.773438 416.617188 126.332031 416.378906 125.863281 416.1875 C 125.394531 415.992188 124.914062 415.847656 124.417969 415.75 C 123.921875 415.648438 123.421875 415.601562 122.914062 415.601562 Z M 169.148438 130.585938 L 169.148438 469.523438 C 169.148438 470.535156 169.050781 471.535156 168.855469 472.527344 C 168.65625 473.519531 168.363281 474.484375 167.976562 475.417969 C 167.589844 476.351562 167.113281 477.242188 166.550781 478.082031 C 165.992188 478.921875 165.351562 479.699219 164.636719 480.414062 C 163.921875 481.132812 163.140625 481.769531 162.300781 482.332031 C 161.457031 482.894531 160.570312 483.367188 159.636719 483.753906 C 158.699219 484.144531 157.738281 484.433594 156.746094 484.632812 C 155.753906 484.828125 154.75 484.929688 153.738281 484.929688 L 92.089844 484.929688 C 91.078125 484.929688 90.078125 484.828125 89.082031 484.632812 C 88.089844 484.433594 87.128906 484.144531 86.191406 483.753906 C 85.257812 483.367188 84.371094 482.894531 83.527344 482.332031 C 82.6875 481.769531 81.910156 481.132812 81.191406 480.414062 C 80.476562 479.699219 79.839844 478.921875 79.277344 478.082031 C 78.714844 477.242188 78.238281 476.351562 77.851562 475.417969 C 77.464844 474.484375 77.171875 473.519531 76.976562 472.527344 C 76.777344 471.535156 76.679688 470.535156 76.679688 469.523438 L 76.679688 130.585938 C 76.679688 129.574219 76.777344 128.570312 76.976562 127.578125 C 77.171875 126.585938 77.464844 125.625 77.851562 124.6875 C 78.238281 123.753906 78.714844 122.867188 79.277344 122.027344 C 79.839844 121.183594 80.476562 120.40625 81.191406 119.691406 C 81.910156 118.976562 82.6875 118.335938 83.527344 117.773438 C 84.371094 117.210938 85.257812 116.738281 86.191406 116.351562 C 87.128906 115.964844 88.089844 115.671875 89.082031 115.472656 C 90.078125 115.277344 91.078125 115.179688 92.089844 115.179688 L 153.738281 115.179688 C 154.75 115.179688 155.753906 115.277344 156.746094 115.472656 C 157.738281 115.671875 158.699219 115.964844 159.636719 116.351562 C 160.570312 116.738281 161.457031 117.210938 162.300781 117.773438 C 163.140625 118.335938 163.921875 118.976562 164.636719 119.691406 C 165.351562 120.40625 165.992188 121.183594 166.550781 122.027344 C 167.113281 122.867188 167.589844 123.753906 167.976562 124.6875 C 168.363281 125.625 168.65625 126.585938 168.855469 127.578125 C 169.050781 128.570312 169.148438 129.574219 169.148438 130.585938 Z M 146.03125 423.304688 C 146.03125 422.546875 145.996094 421.792969 145.921875 421.039062 C 145.847656 420.285156 145.734375 419.539062 145.585938 418.796875 C 145.441406 418.050781 145.257812 417.320312 145.035156 416.59375 C 144.816406 415.871094 144.5625 415.160156 144.273438 414.460938 C 143.984375 413.761719 143.660156 413.078125 143.300781 412.410156 C 142.945312 411.742188 142.558594 411.09375 142.136719 410.464844 C 141.714844 409.835938 141.265625 409.226562 140.785156 408.644531 C 140.304688 408.058594 139.796875 407.496094 139.261719 406.960938 C 138.726562 406.425781 138.164062 405.917969 137.578125 405.441406 C 136.996094 404.960938 136.386719 404.507812 135.757812 404.089844 C 135.128906 403.667969 134.480469 403.28125 133.8125 402.921875 C 133.144531 402.566406 132.460938 402.242188 131.761719 401.953125 C 131.0625 401.664062 130.347656 401.410156 129.625 401.1875 C 128.902344 400.96875 128.167969 400.785156 127.425781 400.636719 C 126.683594 400.492188 125.933594 400.378906 125.179688 400.304688 C 124.425781 400.230469 123.671875 400.195312 122.914062 400.195312 C 122.15625 400.195312 121.402344 400.230469 120.648438 400.304688 C 119.894531 400.378906 119.148438 400.492188 118.402344 400.636719 C 117.660156 400.785156 116.929688 400.96875 116.203125 401.1875 C 115.480469 401.410156 114.765625 401.664062 114.066406 401.953125 C 113.367188 402.242188 112.683594 402.566406 112.015625 402.921875 C 111.347656 403.28125 110.699219 403.667969 110.070312 404.089844 C 109.441406 404.507812 108.832031 404.960938 108.25 405.441406 C 107.664062 405.917969 107.101562 406.425781 106.566406 406.960938 C 106.03125 407.496094 105.523438 408.058594 105.042969 408.644531 C 104.5625 409.226562 104.113281 409.835938 103.691406 410.464844 C 103.273438 411.09375 102.882812 411.742188 102.527344 412.410156 C 102.167969 413.078125 101.847656 413.761719 101.554688 414.460938 C 101.265625 415.160156 101.011719 415.871094 100.792969 416.59375 C 100.570312 417.320312 100.386719 418.050781 100.242188 418.796875 C 100.09375 419.539062 99.980469 420.285156 99.90625 421.039062 C 99.832031 421.792969 99.796875 422.546875 99.796875 423.304688 C 99.796875 424.058594 99.832031 424.816406 99.90625 425.570312 C 99.980469 426.320312 100.09375 427.070312 100.242188 427.8125 C 100.386719 428.554688 100.570312 429.289062 100.792969 430.011719 C 101.011719 430.734375 101.265625 431.449219 101.554688 432.148438 C 101.847656 432.847656 102.167969 433.53125 102.527344 434.195312 C 102.882812 434.863281 103.273438 435.511719 103.691406 436.140625 C 104.113281 436.773438 104.5625 437.378906 105.042969 437.964844 C 105.523438 438.550781 106.03125 439.109375 106.566406 439.644531 C 107.101562 440.179688 107.664062 440.6875 108.25 441.167969 C 108.832031 441.648438 109.441406 442.097656 110.070312 442.519531 C 110.699219 442.9375 111.347656 443.328125 112.015625 443.683594 C 112.683594 444.039062 113.367188 444.363281 114.066406 444.652344 C 114.765625 444.941406 115.480469 445.199219 116.203125 445.417969 C 116.929688 445.636719 117.660156 445.820312 118.402344 445.96875 C 119.148438 446.117188 119.894531 446.226562 120.648438 446.300781 C 121.402344 446.375 122.15625 446.414062 122.914062 446.414062 C 123.671875 446.414062 124.425781 446.375 125.179688 446.300781 C 125.933594 446.226562 126.683594 446.117188 127.425781 445.96875 C 128.167969 445.820312 128.902344 445.636719 129.625 445.417969 C 130.347656 445.199219 131.0625 444.941406 131.761719 444.652344 C 132.460938 444.363281 133.144531 444.039062 133.8125 443.683594 C 134.480469 443.328125 135.128906 442.9375 135.757812 442.519531 C 136.386719 442.097656 136.996094 441.648438 137.578125 441.167969 C 138.164062 440.6875 138.726562 440.179688 139.261719 439.644531 C 139.796875 439.109375 140.304688 438.550781 140.785156 437.964844 C 141.265625 437.378906 141.714844 436.773438 142.136719 436.140625 C 142.558594 435.511719 142.945312 434.863281 143.300781 434.195312 C 143.660156 433.53125 143.984375 432.847656 144.273438 432.148438 C 144.5625 431.449219 144.816406 430.734375 145.035156 430.011719 C 145.257812 429.289062 145.441406 428.554688 145.585938 427.8125 C 145.734375 427.070312 145.847656 426.320312 145.921875 425.570312 C 145.996094 424.816406 146.03125 424.058594 146.03125 423.304688 Z M 146.03125 176.804688 C 146.03125 176.046875 145.996094 175.292969 145.921875 174.539062 C 145.847656 173.785156 145.734375 173.039062 145.585938 172.296875 C 145.441406 171.550781 145.257812 170.820312 145.035156 170.09375 C 144.816406 169.371094 144.5625 168.660156 144.273438 167.960938 C 143.984375 167.261719 143.660156 166.578125 143.300781 165.910156 C 142.945312 165.242188 142.558594 164.59375 142.136719 163.964844 C 141.714844 163.335938 141.265625 162.726562 140.785156 162.144531 C 140.304688 161.558594 139.796875 160.996094 139.261719 160.460938 C 138.726562 159.925781 138.164062 159.417969 137.578125 158.941406 C 136.996094 158.460938 136.386719 158.007812 135.757812 157.589844 C 135.128906 157.167969 134.480469 156.78125 133.8125 156.421875 C 133.144531 156.066406 132.460938 155.742188 131.761719 155.453125 C 131.0625 155.164062 130.347656 154.910156 129.625 154.6875 C 128.902344 154.46875 128.167969 154.285156 127.425781 154.136719 C 126.683594 153.992188 125.933594 153.878906 125.179688 153.804688 C 124.425781 153.730469 123.671875 153.695312 122.914062 153.695312 C 122.15625 153.695312 121.402344 153.730469 120.648438 153.804688 C 119.894531 153.878906 119.148438 153.992188 118.402344 154.136719 C 117.660156 154.285156 116.929688 154.46875 116.203125 154.6875 C 115.480469 154.910156 114.765625 155.164062 114.066406 155.453125 C 113.367188 155.742188 112.683594 156.066406 112.015625 156.421875 C 111.347656 156.78125 110.699219 157.167969 110.070312 157.589844 C 109.441406 158.007812 108.832031 158.460938 108.25 158.941406 C 107.664062 159.417969 107.101562 159.925781 106.566406 160.460938 C 106.03125 160.996094 105.523438 161.558594 105.042969 162.144531 C 104.5625 162.726562 104.113281 163.335938 103.691406 163.964844 C 103.273438 164.59375 102.882812 165.242188 102.527344 165.910156 C 102.167969 166.578125 101.847656 167.261719 101.554688 167.960938 C 101.265625 168.660156 101.011719 169.371094 100.792969 170.09375 C 100.570312 170.820312 100.386719 171.550781 100.242188 172.296875 C 100.09375 173.039062 99.980469 173.785156 99.90625 174.539062 C 99.832031 175.292969 99.796875 176.046875 99.796875 176.804688 C 99.796875 177.558594 99.832031 178.316406 99.90625 179.070312 C 99.980469 179.820312 100.09375 180.570312 100.242188 181.3125 C 100.386719 182.054688 100.570312 182.789062 100.792969 183.511719 C 101.011719 184.234375 101.265625 184.949219 101.554688 185.648438 C 101.847656 186.347656 102.167969 187.03125 102.527344 187.695312 C 102.882812 188.363281 103.273438 189.011719 103.691406 189.640625 C 104.113281 190.273438 104.5625 190.878906 105.042969 191.464844 C 105.523438 192.050781 106.03125 192.609375 106.566406 193.144531 C 107.101562 193.679688 107.664062 194.1875 108.25 194.667969 C 108.832031 195.148438 109.441406 195.597656 110.070312 196.019531 C 110.699219 196.4375 111.347656 196.828125 112.015625 197.183594 C 112.683594 197.539062 113.367188 197.863281 114.066406 198.152344 C 114.765625 198.441406 115.480469 198.699219 116.203125 198.917969 C 116.929688 199.136719 117.660156 199.320312 118.402344 199.46875 C 119.148438 199.617188 119.894531 199.726562 120.648438 199.800781 C 121.402344 199.875 122.15625 199.914062 122.914062 199.914062 C 123.671875 199.914062 124.425781 199.875 125.179688 199.800781 C 125.933594 199.726562 126.683594 199.617188 127.425781 199.46875 C 128.167969 199.320312 128.902344 199.136719 129.625 198.917969 C 130.347656 198.699219 131.0625 198.441406 131.761719 198.152344 C 132.460938 197.863281 133.144531 197.539062 133.8125 197.183594 C 134.480469 196.828125 135.128906 196.4375 135.757812 196.019531 C 136.386719 195.597656 136.996094 195.148438 137.578125 194.667969 C 138.164062 194.1875 138.726562 193.679688 139.261719 193.144531 C 139.796875 192.609375 140.304688 192.050781 140.785156 191.464844 C 141.265625 190.878906 141.714844 190.273438 142.136719 189.640625 C 142.558594 189.011719 142.945312 188.363281 143.300781 187.695312 C 143.660156 187.03125 143.984375 186.347656 144.273438 185.648438 C 144.5625 184.949219 144.816406 184.234375 145.035156 183.511719 C 145.257812 182.789062 145.441406 182.054688 145.585938 181.3125 C 145.734375 180.570312 145.847656 179.820312 145.921875 179.070312 C 145.996094 178.316406 146.03125 177.558594 146.03125 176.804688 Z M 246.210938 438.710938 L 261.621094 438.710938 L 261.621094 423.304688 L 246.210938 423.304688 Z M 454.269531 438.710938 L 469.679688 438.710938 L 469.679688 423.304688 L 454.269531 423.304688 Z M 384.917969 315.460938 L 400.328125 315.460938 L 400.328125 300.054688 L 384.917969 300.054688 Z M 315.5625 377.085938 L 330.972656 377.085938 L 330.972656 361.679688 L 315.5625 361.679688 Z M 384.917969 377.085938 L 400.328125 377.085938 L 400.328125 361.679688 L 384.917969 361.679688 Z M 315.5625 315.460938 L 330.972656 315.460938 L 330.972656 300.054688 L 315.5625 300.054688 Z M 384.917969 438.710938 L 400.328125 438.710938 L 400.328125 423.304688 L 384.917969 423.304688 Z M 315.5625 438.710938 L 330.972656 438.710938 L 330.972656 423.304688 L 315.5625 423.304688 Z M 246.210938 315.460938 L 261.621094 315.460938 L 261.621094 300.054688 L 246.210938 300.054688 Z M 523.621094 138.289062 L 523.621094 461.820312 C 523.621094 462.574219 523.585938 463.332031 523.511719 464.085938 C 523.4375 464.835938 523.328125 465.585938 523.179688 466.328125 C 523.03125 467.070312 522.847656 467.804688 522.628906 468.527344 C 522.40625 469.25 522.152344 469.964844 521.863281 470.664062 C 521.574219 471.363281 521.25 472.046875 520.894531 472.710938 C 520.535156 473.378906 520.148438 474.027344 519.726562 474.65625 C 519.304688 475.289062 518.855469 475.894531 518.375 476.480469 C 517.894531 477.066406 517.386719 477.625 516.851562 478.160156 C 516.316406 478.695312 515.757812 479.203125 515.171875 479.683594 C 514.585938 480.164062 513.976562 480.613281 513.347656 481.035156 C 512.71875 481.453125 512.070312 481.84375 511.402344 482.199219 C 510.734375 482.554688 510.050781 482.878906 509.351562 483.167969 C 508.652344 483.457031 507.941406 483.714844 507.214844 483.933594 C 506.492188 484.152344 505.757812 484.335938 505.015625 484.484375 C 504.273438 484.632812 503.523438 484.742188 502.769531 484.816406 C 502.019531 484.890625 501.261719 484.929688 500.503906 484.929688 L 215.386719 484.929688 C 214.628906 484.929688 213.875 484.890625 213.121094 484.816406 C 212.367188 484.742188 211.617188 484.632812 210.875 484.484375 C 210.132812 484.335938 209.398438 484.152344 208.675781 483.933594 C 207.949219 483.714844 207.238281 483.457031 206.539062 483.167969 C 205.839844 482.878906 205.15625 482.554688 204.488281 482.199219 C 203.820312 481.84375 203.171875 481.453125 202.542969 481.035156 C 201.914062 480.613281 201.304688 480.164062 200.71875 479.683594 C 200.132812 479.203125 199.574219 478.695312 199.039062 478.160156 C 198.503906 477.625 197.996094 477.066406 197.515625 476.480469 C 197.035156 475.894531 196.585938 475.289062 196.164062 474.65625 C 195.742188 474.027344 195.355469 473.378906 194.996094 472.710938 C 194.640625 472.046875 194.316406 471.363281 194.027344 470.664062 C 193.738281 469.964844 193.484375 469.25 193.261719 468.527344 C 193.042969 467.804688 192.859375 467.070312 192.710938 466.328125 C 192.5625 465.585938 192.453125 464.835938 192.378906 464.085938 C 192.304688 463.332031 192.269531 462.574219 192.269531 461.820312 L 192.269531 138.289062 C 192.269531 137.53125 192.304688 136.777344 192.378906 136.023438 C 192.453125 135.269531 192.5625 134.523438 192.710938 133.78125 C 192.859375 133.035156 193.042969 132.304688 193.261719 131.578125 C 193.484375 130.855469 193.738281 130.144531 194.027344 129.445312 C 194.316406 128.746094 194.640625 128.0625 194.996094 127.394531 C 195.355469 126.726562 195.742188 126.078125 196.164062 125.449219 C 196.585938 124.820312 197.035156 124.210938 197.515625 123.628906 C 197.996094 123.042969 198.503906 122.480469 199.039062 121.945312 C 199.574219 121.410156 200.132812 120.902344 200.71875 120.425781 C 201.304688 119.945312 201.914062 119.492188 202.542969 119.074219 C 203.171875 118.652344 203.820312 118.265625 204.488281 117.90625 C 205.15625 117.550781 205.839844 117.226562 206.539062 116.9375 C 207.238281 116.648438 207.949219 116.394531 208.675781 116.171875 C 209.398438 115.953125 210.132812 115.769531 210.875 115.621094 C 211.617188 115.476562 212.367188 115.363281 213.121094 115.289062 C 213.875 115.214844 214.628906 115.179688 215.386719 115.179688 L 500.503906 115.179688 C 501.261719 115.179688 502.019531 115.214844 502.769531 115.289062 C 503.523438 115.363281 504.273438 115.476562 505.015625 115.621094 C 505.757812 115.769531 506.492188 115.953125 507.214844 116.171875 C 507.941406 116.394531 508.652344 116.648438 509.351562 116.9375 C 510.050781 117.226562 510.734375 117.550781 511.402344 117.90625 C 512.070312 118.265625 512.71875 118.652344 513.347656 119.074219 C 513.976562 119.492188 514.585938 119.945312 515.171875 120.425781 C 515.757812 120.902344 516.316406 121.410156 516.851562 121.945312 C 517.386719 122.480469 517.894531 123.042969 518.375 123.628906 C 518.855469 124.210938 519.304688 124.820312 519.726562 125.449219 C 520.148438 126.078125 520.535156 126.726562 520.894531 127.394531 C 521.25 128.0625 521.574219 128.746094 521.863281 129.445312 C 522.152344 130.144531 522.40625 130.855469 522.628906 131.578125 C 522.847656 132.304688 523.03125 133.035156 523.179688 133.78125 C 523.328125 134.523438 523.4375 135.269531 523.511719 136.023438 C 523.585938 136.777344 523.621094 137.53125 523.621094 138.289062 Z M 277.03125 415.601562 C 277.03125 415.09375 276.984375 414.59375 276.886719 414.097656 C 276.785156 413.601562 276.640625 413.121094 276.445312 412.652344 C 276.253906 412.183594 276.015625 411.742188 275.734375 411.320312 C 275.453125 410.898438 275.132812 410.511719 274.777344 410.152344 C 274.417969 409.796875 274.027344 409.476562 273.609375 409.195312 C 273.1875 408.914062 272.742188 408.675781 272.277344 408.484375 C 271.808594 408.289062 271.328125 408.144531 270.832031 408.046875 C 270.335938 407.945312 269.832031 407.898438 269.328125 407.898438 L 238.503906 407.898438 C 237.996094 407.898438 237.496094 407.945312 237 408.046875 C 236.503906 408.144531 236.023438 408.289062 235.554688 408.484375 C 235.085938 408.675781 234.644531 408.914062 234.222656 409.195312 C 233.800781 409.476562 233.414062 409.796875 233.054688 410.152344 C 232.695312 410.511719 232.378906 410.898438 232.097656 411.320312 C 231.816406 411.742188 231.578125 412.183594 231.382812 412.652344 C 231.191406 413.121094 231.042969 413.601562 230.945312 414.097656 C 230.847656 414.59375 230.796875 415.09375 230.796875 415.601562 L 230.796875 446.414062 C 230.796875 446.917969 230.847656 447.417969 230.945312 447.914062 C 231.042969 448.410156 231.191406 448.894531 231.382812 449.359375 C 231.578125 449.828125 231.816406 450.273438 232.097656 450.691406 C 232.378906 451.113281 232.695312 451.503906 233.054688 451.859375 C 233.414062 452.21875 233.800781 452.535156 234.222656 452.816406 C 234.644531 453.097656 235.085938 453.335938 235.554688 453.53125 C 236.023438 453.722656 236.503906 453.871094 237 453.96875 C 237.496094 454.066406 237.996094 454.117188 238.503906 454.117188 L 269.328125 454.117188 C 269.832031 454.117188 270.335938 454.066406 270.832031 453.96875 C 271.328125 453.871094 271.808594 453.722656 272.277344 453.53125 C 272.742188 453.335938 273.1875 453.097656 273.609375 452.816406 C 274.027344 452.535156 274.417969 452.21875 274.777344 451.859375 C 275.132812 451.503906 275.453125 451.113281 275.734375 450.691406 C 276.015625 450.273438 276.253906 449.828125 276.445312 449.359375 C 276.640625 448.894531 276.785156 448.410156 276.886719 447.914062 C 276.984375 447.417969 277.03125 446.917969 277.03125 446.414062 Z M 277.03125 353.976562 C 277.03125 353.46875 276.984375 352.96875 276.886719 352.472656 C 276.785156 351.976562 276.640625 351.496094 276.445312 351.027344 C 276.253906 350.558594 276.015625 350.117188 275.734375 349.695312 C 275.453125 349.273438 275.132812 348.886719 274.777344 348.527344 C 274.417969 348.171875 274.027344 347.851562 273.609375 347.570312 C 273.1875 347.289062 272.742188 347.050781 272.277344 346.859375 C 271.808594 346.664062 271.328125 346.519531 270.832031 346.421875 C 270.335938 346.320312 269.832031 346.273438 269.328125 346.273438 L 238.503906 346.273438 C 237.996094 346.273438 237.496094 346.320312 237 346.421875 C 236.503906 346.519531 236.023438 346.664062 235.554688 346.859375 C 235.085938 347.050781 234.644531 347.289062 234.222656 347.570312 C 233.800781 347.851562 233.414062 348.171875 233.054688 348.527344 C 232.695312 348.886719 232.378906 349.273438 232.097656 349.695312 C 231.816406 350.117188 231.578125 350.558594 231.382812 351.027344 C 231.191406 351.496094 231.042969 351.976562 230.945312 352.472656 C 230.847656 352.96875 230.796875 353.46875 230.796875 353.976562 L 230.796875 384.789062 C 230.796875 385.292969 230.847656 385.792969 230.945312 386.289062 C 231.042969 386.785156 231.191406 387.269531 231.382812 387.734375 C 231.578125 388.203125 231.816406 388.648438 232.097656 389.066406 C 232.378906 389.488281 232.695312 389.878906 233.054688 390.234375 C 233.414062 390.59375 233.800781 390.910156 234.222656 391.191406 C 234.644531 391.472656 235.085938 391.710938 235.554688 391.90625 C 236.023438 392.097656 236.503906 392.246094 237 392.34375 C 237.496094 392.441406 237.996094 392.492188 238.503906 392.492188 L 269.328125 392.492188 C 269.832031 392.492188 270.335938 392.441406 270.832031 392.34375 C 271.328125 392.246094 271.808594 392.097656 272.277344 391.90625 C 272.742188 391.710938 273.1875 391.472656 273.609375 391.191406 C 274.027344 390.910156 274.417969 390.59375 274.777344 390.234375 C 275.132812 389.878906 275.453125 389.488281 275.734375 389.066406 C 276.015625 388.648438 276.253906 388.203125 276.445312 387.734375 C 276.640625 387.269531 276.785156 386.785156 276.886719 386.289062 C 276.984375 385.792969 277.03125 385.292969 277.03125 384.789062 Z M 277.03125 292.351562 C 277.03125 291.84375 276.984375 291.34375 276.886719 290.847656 C 276.785156 290.351562 276.640625 289.871094 276.445312 289.402344 C 276.253906 288.933594 276.015625 288.492188 275.734375 288.070312 C 275.453125 287.648438 275.132812 287.261719 274.777344 286.902344 C 274.417969 286.546875 274.027344 286.226562 273.609375 285.945312 C 273.1875 285.664062 272.742188 285.425781 272.277344 285.234375 C 271.808594 285.039062 271.328125 284.894531 270.832031 284.796875 C 270.335938 284.695312 269.832031 284.648438 269.328125 284.648438 L 238.503906 284.648438 C 237.996094 284.648438 237.496094 284.695312 237 284.796875 C 236.503906 284.894531 236.023438 285.039062 235.554688 285.234375 C 235.085938 285.425781 234.644531 285.664062 234.222656 285.945312 C 233.800781 286.226562 233.414062 286.546875 233.054688 286.902344 C 232.695312 287.261719 232.378906 287.648438 232.097656 288.070312 C 231.816406 288.492188 231.578125 288.933594 231.382812 289.402344 C 231.191406 289.871094 231.042969 290.351562 230.945312 290.847656 C 230.847656 291.34375 230.796875 291.84375 230.796875 292.351562 L 230.796875 323.164062 C 230.796875 323.667969 230.847656 324.167969 230.945312 324.664062 C 231.042969 325.160156 231.191406 325.644531 231.382812 326.109375 C 231.578125 326.578125 231.816406 327.023438 232.097656 327.441406 C 232.378906 327.863281 232.695312 328.253906 233.054688 328.609375 C 233.414062 328.96875 233.800781 329.285156 234.222656 329.566406 C 234.644531 329.847656 235.085938 330.085938 235.554688 330.28125 C 236.023438 330.472656 236.503906 330.621094 237 330.71875 C 237.496094 330.816406 237.996094 330.867188 238.503906 330.867188 L 269.328125 330.867188 C 269.832031 330.867188 270.335938 330.816406 270.832031 330.71875 C 271.328125 330.621094 271.808594 330.472656 272.277344 330.28125 C 272.742188 330.085938 273.1875 329.847656 273.609375 329.566406 C 274.027344 329.285156 274.417969 328.96875 274.777344 328.609375 C 275.132812 328.253906 275.453125 327.863281 275.734375 327.441406 C 276.015625 327.023438 276.253906 326.578125 276.445312 326.109375 C 276.640625 325.644531 276.785156 325.160156 276.886719 324.664062 C 276.984375 324.167969 277.03125 323.667969 277.03125 323.164062 Z M 346.386719 415.601562 C 346.386719 415.09375 346.335938 414.59375 346.238281 414.097656 C 346.140625 413.601562 345.992188 413.121094 345.800781 412.652344 C 345.605469 412.183594 345.367188 411.742188 345.085938 411.320312 C 344.804688 410.898438 344.488281 410.511719 344.128906 410.152344 C 343.773438 409.796875 343.382812 409.476562 342.960938 409.195312 C 342.539062 408.914062 342.097656 408.675781 341.628906 408.484375 C 341.160156 408.289062 340.679688 408.144531 340.183594 408.046875 C 339.6875 407.945312 339.1875 407.898438 338.679688 407.898438 L 307.855469 407.898438 C 307.351562 407.898438 306.851562 407.945312 306.351562 408.046875 C 305.855469 408.144531 305.375 408.289062 304.90625 408.484375 C 304.441406 408.675781 303.996094 408.914062 303.574219 409.195312 C 303.15625 409.476562 302.765625 409.796875 302.40625 410.152344 C 302.050781 410.511719 301.730469 410.898438 301.449219 411.320312 C 301.167969 411.742188 300.929688 412.183594 300.738281 412.652344 C 300.542969 413.121094 300.398438 413.601562 300.300781 414.097656 C 300.199219 414.59375 300.152344 415.09375 300.152344 415.601562 L 300.152344 446.414062 C 300.152344 446.917969 300.199219 447.417969 300.300781 447.914062 C 300.398438 448.410156 300.542969 448.894531 300.738281 449.359375 C 300.929688 449.828125 301.167969 450.273438 301.449219 450.691406 C 301.730469 451.113281 302.050781 451.503906 302.40625 451.859375 C 302.765625 452.21875 303.15625 452.535156 303.574219 452.816406 C 303.996094 453.097656 304.441406 453.335938 304.90625 453.53125 C 305.375 453.722656 305.855469 453.871094 306.351562 453.96875 C 306.851562 454.066406 307.351562 454.117188 307.855469 454.117188 L 338.679688 454.117188 C 339.1875 454.117188 339.6875 454.066406 340.183594 453.96875 C 340.679688 453.871094 341.160156 453.722656 341.628906 453.53125 C 342.097656 453.335938 342.539062 453.097656 342.960938 452.816406 C 343.382812 452.535156 343.773438 452.21875 344.128906 451.859375 C 344.488281 451.503906 344.804688 451.113281 345.085938 450.691406 C 345.367188 450.273438 345.605469 449.828125 345.800781 449.359375 C 345.992188 448.894531 346.140625 448.410156 346.238281 447.914062 C 346.335938 447.417969 346.386719 446.917969 346.386719 446.414062 Z M 346.386719 353.976562 C 346.386719 353.46875 346.335938 352.96875 346.238281 352.472656 C 346.140625 351.976562 345.992188 351.496094 345.800781 351.027344 C 345.605469 350.558594 345.367188 350.117188 345.085938 349.695312 C 344.804688 349.273438 344.488281 348.886719 344.128906 348.527344 C 343.773438 348.171875 343.382812 347.851562 342.960938 347.570312 C 342.539062 347.289062 342.097656 347.050781 341.628906 346.859375 C 341.160156 346.664062 340.679688 346.519531 340.183594 346.421875 C 339.6875 346.320312 339.1875 346.273438 338.679688 346.273438 L 307.855469 346.273438 C 307.351562 346.273438 306.851562 346.320312 306.351562 346.421875 C 305.855469 346.519531 305.375 346.664062 304.90625 346.859375 C 304.441406 347.050781 303.996094 347.289062 303.574219 347.570312 C 303.15625 347.851562 302.765625 348.171875 302.40625 348.527344 C 302.050781 348.886719 301.730469 349.273438 301.449219 349.695312 C 301.167969 350.117188 300.929688 350.558594 300.738281 351.027344 C 300.542969 351.496094 300.398438 351.976562 300.300781 352.472656 C 300.199219 352.96875 300.152344 353.46875 300.152344 353.976562 L 300.152344 384.789062 C 300.152344 385.292969 300.199219 385.792969 300.300781 386.289062 C 300.398438 386.785156 300.542969 387.269531 300.738281 387.734375 C 300.929688 388.203125 301.167969 388.648438 301.449219 389.066406 C 301.730469 389.488281 302.050781 389.878906 302.40625 390.234375 C 302.765625 390.59375 303.15625 390.910156 303.574219 391.191406 C 303.996094 391.472656 304.441406 391.710938 304.90625 391.90625 C 305.375 392.097656 305.855469 392.246094 306.351562 392.34375 C 306.851562 392.441406 307.351562 392.492188 307.855469 392.492188 L 338.679688 392.492188 C 339.1875 392.492188 339.6875 392.441406 340.183594 392.34375 C 340.679688 392.246094 341.160156 392.097656 341.628906 391.90625 C 342.097656 391.710938 342.539062 391.472656 342.960938 391.191406 C 343.382812 390.910156 343.773438 390.59375 344.128906 390.234375 C 344.488281 389.878906 344.804688 389.488281 345.085938 389.066406 C 345.367188 388.648438 345.605469 388.203125 345.800781 387.734375 C 345.992188 387.269531 346.140625 386.785156 346.238281 386.289062 C 346.335938 385.792969 346.386719 385.292969 346.386719 384.789062 Z M 346.386719 292.351562 C 346.386719 291.84375 346.335938 291.34375 346.238281 290.847656 C 346.140625 290.351562 345.992188 289.871094 345.800781 289.402344 C 345.605469 288.933594 345.367188 288.492188 345.085938 288.070312 C 344.804688 287.648438 344.488281 287.261719 344.128906 286.902344 C 343.773438 286.546875 343.382812 286.226562 342.960938 285.945312 C 342.539062 285.664062 342.097656 285.425781 341.628906 285.234375 C 341.160156 285.039062 340.679688 284.894531 340.183594 284.796875 C 339.6875 284.695312 339.1875 284.648438 338.679688 284.648438 L 307.855469 284.648438 C 307.351562 284.648438 306.851562 284.695312 306.351562 284.796875 C 305.855469 284.894531 305.375 285.039062 304.90625 285.234375 C 304.441406 285.425781 303.996094 285.664062 303.574219 285.945312 C 303.15625 286.226562 302.765625 286.546875 302.40625 286.902344 C 302.050781 287.261719 301.730469 287.648438 301.449219 288.070312 C 301.167969 288.492188 300.929688 288.933594 300.738281 289.402344 C 300.542969 289.871094 300.398438 290.351562 300.300781 290.847656 C 300.199219 291.34375 300.152344 291.84375 300.152344 292.351562 L 300.152344 323.164062 C 300.152344 323.667969 300.199219 324.167969 300.300781 324.664062 C 300.398438 325.160156 300.542969 325.644531 300.738281 326.109375 C 300.929688 326.578125 301.167969 327.023438 301.449219 327.441406 C 301.730469 327.863281 302.050781 328.253906 302.40625 328.609375 C 302.765625 328.96875 303.15625 329.285156 303.574219 329.566406 C 303.996094 329.847656 304.441406 330.085938 304.90625 330.28125 C 305.375 330.472656 305.855469 330.621094 306.351562 330.71875 C 306.851562 330.816406 307.351562 330.867188 307.855469 330.867188 L 338.679688 330.867188 C 339.1875 330.867188 339.6875 330.816406 340.183594 330.71875 C 340.679688 330.621094 341.160156 330.472656 341.628906 330.28125 C 342.097656 330.085938 342.539062 329.847656 342.960938 329.566406 C 343.382812 329.285156 343.773438 328.96875 344.128906 328.609375 C 344.488281 328.253906 344.804688 327.863281 345.085938 327.441406 C 345.367188 327.023438 345.605469 326.578125 345.800781 326.109375 C 345.992188 325.644531 346.140625 325.160156 346.238281 324.664062 C 346.335938 324.167969 346.386719 323.667969 346.386719 323.164062 Z M 415.738281 415.601562 C 415.738281 415.09375 415.691406 414.59375 415.589844 414.097656 C 415.492188 413.601562 415.347656 413.121094 415.152344 412.652344 C 414.960938 412.183594 414.722656 411.742188 414.441406 411.320312 C 414.160156 410.898438 413.839844 410.511719 413.484375 410.152344 C 413.125 409.796875 412.734375 409.476562 412.316406 409.195312 C 411.894531 408.914062 411.449219 408.675781 410.984375 408.484375 C 410.515625 408.289062 410.035156 408.144531 409.539062 408.046875 C 409.039062 407.945312 408.539062 407.898438 408.035156 407.898438 L 377.210938 407.898438 C 376.703125 407.898438 376.203125 407.945312 375.707031 408.046875 C 375.210938 408.144531 374.730469 408.289062 374.261719 408.484375 C 373.792969 408.675781 373.351562 408.914062 372.929688 409.195312 C 372.507812 409.476562 372.117188 409.796875 371.761719 410.152344 C 371.402344 410.511719 371.085938 410.898438 370.804688 411.320312 C 370.523438 411.742188 370.285156 412.183594 370.089844 412.652344 C 369.898438 413.121094 369.75 413.601562 369.652344 414.097656 C 369.554688 414.59375 369.503906 415.09375 369.503906 415.601562 L 369.503906 446.414062 C 369.503906 446.917969 369.554688 447.417969 369.652344 447.914062 C 369.75 448.410156 369.898438 448.894531 370.089844 449.359375 C 370.285156 449.828125 370.523438 450.273438 370.804688 450.691406 C 371.085938 451.113281 371.402344 451.503906 371.761719 451.859375 C 372.117188 452.21875 372.507812 452.535156 372.929688 452.816406 C 373.351562 453.097656 373.792969 453.335938 374.261719 453.53125 C 374.730469 453.722656 375.210938 453.871094 375.707031 453.96875 C 376.203125 454.066406 376.703125 454.117188 377.210938 454.117188 L 408.035156 454.117188 C 408.539062 454.117188 409.039062 454.066406 409.539062 453.96875 C 410.035156 453.871094 410.515625 453.722656 410.984375 453.53125 C 411.449219 453.335938 411.894531 453.097656 412.316406 452.816406 C 412.734375 452.535156 413.125 452.21875 413.484375 451.859375 C 413.839844 451.503906 414.160156 451.113281 414.441406 450.691406 C 414.722656 450.273438 414.960938 449.828125 415.152344 449.359375 C 415.347656 448.894531 415.492188 448.410156 415.589844 447.914062 C 415.691406 447.417969 415.738281 446.917969 415.738281 446.414062 Z M 415.738281 353.976562 C 415.738281 353.46875 415.691406 352.96875 415.589844 352.472656 C 415.492188 351.976562 415.347656 351.496094 415.152344 351.027344 C 414.960938 350.558594 414.722656 350.117188 414.441406 349.695312 C 414.160156 349.273438 413.839844 348.886719 413.484375 348.527344 C 413.125 348.171875 412.734375 347.851562 412.316406 347.570312 C 411.894531 347.289062 411.449219 347.050781 410.984375 346.859375 C 410.515625 346.664062 410.035156 346.519531 409.539062 346.421875 C 409.039062 346.320312 408.539062 346.273438 408.035156 346.273438 L 377.210938 346.273438 C 376.703125 346.273438 376.203125 346.320312 375.707031 346.421875 C 375.210938 346.519531 374.730469 346.664062 374.261719 346.859375 C 373.792969 347.050781 373.351562 347.289062 372.929688 347.570312 C 372.507812 347.851562 372.117188 348.171875 371.761719 348.527344 C 371.402344 348.886719 371.085938 349.273438 370.804688 349.695312 C 370.523438 350.117188 370.285156 350.558594 370.089844 351.027344 C 369.898438 351.496094 369.75 351.976562 369.652344 352.472656 C 369.554688 352.96875 369.503906 353.46875 369.503906 353.976562 L 369.503906 384.789062 C 369.503906 385.292969 369.554688 385.792969 369.652344 386.289062 C 369.75 386.785156 369.898438 387.269531 370.089844 387.734375 C 370.285156 388.203125 370.523438 388.648438 370.804688 389.066406 C 371.085938 389.488281 371.402344 389.878906 371.761719 390.234375 C 372.117188 390.59375 372.507812 390.910156 372.929688 391.191406 C 373.351562 391.472656 373.792969 391.710938 374.261719 391.90625 C 374.730469 392.097656 375.210938 392.246094 375.707031 392.34375 C 376.203125 392.441406 376.703125 392.492188 377.210938 392.492188 L 408.035156 392.492188 C 408.539062 392.492188 409.039062 392.441406 409.539062 392.34375 C 410.035156 392.246094 410.515625 392.097656 410.984375 391.90625 C 411.449219 391.710938 411.894531 391.472656 412.316406 391.191406 C 412.734375 390.910156 413.125 390.59375 413.484375 390.234375 C 413.839844 389.878906 414.160156 389.488281 414.441406 389.066406 C 414.722656 388.648438 414.960938 388.203125 415.152344 387.734375 C 415.347656 387.269531 415.492188 386.785156 415.589844 386.289062 C 415.691406 385.792969 415.738281 385.292969 415.738281 384.789062 Z M 415.738281 292.351562 C 415.738281 291.84375 415.691406 291.34375 415.589844 290.847656 C 415.492188 290.351562 415.347656 289.871094 415.152344 289.402344 C 414.960938 288.933594 414.722656 288.492188 414.441406 288.070312 C 414.160156 287.648438 413.839844 287.261719 413.484375 286.902344 C 413.125 286.546875 412.734375 286.226562 412.316406 285.945312 C 411.894531 285.664062 411.449219 285.425781 410.984375 285.234375 C 410.515625 285.039062 410.035156 284.894531 409.539062 284.796875 C 409.039062 284.695312 408.539062 284.648438 408.035156 284.648438 L 377.210938 284.648438 C 376.703125 284.648438 376.203125 284.695312 375.707031 284.796875 C 375.210938 284.894531 374.730469 285.039062 374.261719 285.234375 C 373.792969 285.425781 373.351562 285.664062 372.929688 285.945312 C 372.507812 286.226562 372.117188 286.546875 371.761719 286.902344 C 371.402344 287.261719 371.085938 287.648438 370.804688 288.070312 C 370.523438 288.492188 370.285156 288.933594 370.089844 289.402344 C 369.898438 289.871094 369.75 290.351562 369.652344 290.847656 C 369.554688 291.34375 369.503906 291.84375 369.503906 292.351562 L 369.503906 323.164062 C 369.503906 323.667969 369.554688 324.167969 369.652344 324.664062 C 369.75 325.160156 369.898438 325.644531 370.089844 326.109375 C 370.285156 326.578125 370.523438 327.023438 370.804688 327.441406 C 371.085938 327.863281 371.402344 328.253906 371.761719 328.609375 C 372.117188 328.96875 372.507812 329.285156 372.929688 329.566406 C 373.351562 329.847656 373.792969 330.085938 374.261719 330.28125 C 374.730469 330.472656 375.210938 330.621094 375.707031 330.71875 C 376.203125 330.816406 376.703125 330.867188 377.210938 330.867188 L 408.035156 330.867188 C 408.539062 330.867188 409.039062 330.816406 409.539062 330.71875 C 410.035156 330.621094 410.515625 330.472656 410.984375 330.28125 C 411.449219 330.085938 411.894531 329.847656 412.316406 329.566406 C 412.734375 329.285156 413.125 328.96875 413.484375 328.609375 C 413.839844 328.253906 414.160156 327.863281 414.441406 327.441406 C 414.722656 327.023438 414.960938 326.578125 415.152344 326.109375 C 415.347656 325.644531 415.492188 325.160156 415.589844 324.664062 C 415.691406 324.167969 415.738281 323.667969 415.738281 323.164062 Z M 485.09375 415.601562 C 485.09375 415.09375 485.042969 414.59375 484.945312 414.097656 C 484.847656 413.601562 484.699219 413.121094 484.507812 412.652344 C 484.3125 412.183594 484.074219 411.742188 483.792969 411.320312 C 483.511719 410.898438 483.195312 410.511719 482.835938 410.152344 C 482.476562 409.796875 482.089844 409.476562 481.667969 409.195312 C 481.246094 408.914062 480.804688 408.675781 480.335938 408.484375 C 479.867188 408.289062 479.386719 408.144531 478.890625 408.046875 C 478.394531 407.945312 477.894531 407.898438 477.386719 407.898438 L 446.5625 407.898438 C 446.058594 407.898438 445.554688 407.945312 445.058594 408.046875 C 444.5625 408.144531 444.082031 408.289062 443.613281 408.484375 C 443.148438 408.675781 442.703125 408.914062 442.28125 409.195312 C 441.863281 409.476562 441.472656 409.796875 441.113281 410.152344 C 440.757812 410.511719 440.4375 410.898438 440.15625 411.320312 C 439.875 411.742188 439.636719 412.183594 439.445312 412.652344 C 439.25 413.121094 439.105469 413.601562 439.003906 414.097656 C 438.90625 414.59375 438.859375 415.09375 438.859375 415.601562 L 438.859375 446.414062 C 438.859375 446.917969 438.90625 447.417969 439.003906 447.914062 C 439.105469 448.410156 439.25 448.894531 439.445312 449.359375 C 439.636719 449.828125 439.875 450.273438 440.15625 450.691406 C 440.4375 451.113281 440.757812 451.503906 441.113281 451.859375 C 441.472656 452.21875 441.863281 452.535156 442.28125 452.816406 C 442.703125 453.097656 443.148438 453.335938 443.613281 453.53125 C 444.082031 453.722656 444.5625 453.871094 445.058594 453.96875 C 445.554688 454.066406 446.058594 454.117188 446.5625 454.117188 L 477.386719 454.117188 C 477.894531 454.117188 478.394531 454.066406 478.890625 453.96875 C 479.386719 453.871094 479.867188 453.722656 480.335938 453.53125 C 480.804688 453.335938 481.246094 453.097656 481.667969 452.816406 C 482.089844 452.535156 482.476562 452.21875 482.835938 451.859375 C 483.195312 451.503906 483.511719 451.113281 483.792969 450.691406 C 484.074219 450.273438 484.3125 449.828125 484.507812 449.359375 C 484.699219 448.894531 484.847656 448.410156 484.945312 447.914062 C 485.042969 447.417969 485.09375 446.917969 485.09375 446.414062 Z M 485.09375 353.976562 C 485.09375 353.46875 485.042969 352.96875 484.945312 352.472656 C 484.847656 351.976562 484.699219 351.496094 484.507812 351.027344 C 484.3125 350.558594 484.074219 350.117188 483.792969 349.695312 C 483.511719 349.273438 483.195312 348.886719 482.835938 348.527344 C 482.476562 348.171875 482.089844 347.851562 481.667969 347.570312 C 481.246094 347.289062 480.804688 347.050781 480.335938 346.859375 C 479.867188 346.664062 479.386719 346.519531 478.890625 346.421875 C 478.394531 346.320312 477.894531 346.273438 477.386719 346.273438 L 446.5625 346.273438 C 446.058594 346.273438 445.554688 346.320312 445.058594 346.421875 C 444.5625 346.519531 444.082031 346.664062 443.613281 346.859375 C 443.148438 347.050781 442.703125 347.289062 442.28125 347.570312 C 441.863281 347.851562 441.472656 348.171875 441.113281 348.527344 C 440.757812 348.886719 440.4375 349.273438 440.15625 349.695312 C 439.875 350.117188 439.636719 350.558594 439.445312 351.027344 C 439.25 351.496094 439.105469 351.976562 439.003906 352.472656 C 438.90625 352.96875 438.859375 353.46875 438.859375 353.976562 L 438.859375 384.789062 C 438.859375 385.292969 438.90625 385.792969 439.003906 386.289062 C 439.105469 386.785156 439.25 387.269531 439.445312 387.734375 C 439.636719 388.203125 439.875 388.648438 440.15625 389.066406 C 440.4375 389.488281 440.757812 389.878906 441.113281 390.234375 C 441.472656 390.59375 441.863281 390.910156 442.28125 391.191406 C 442.703125 391.472656 443.148438 391.710938 443.613281 391.90625 C 444.082031 392.097656 444.5625 392.246094 445.058594 392.34375 C 445.554688 392.441406 446.058594 392.492188 446.5625 392.492188 L 477.386719 392.492188 C 477.894531 392.492188 478.394531 392.441406 478.890625 392.34375 C 479.386719 392.246094 479.867188 392.097656 480.335938 391.90625 C 480.804688 391.710938 481.246094 391.472656 481.667969 391.191406 C 482.089844 390.910156 482.476562 390.59375 482.835938 390.234375 C 483.195312 389.878906 483.511719 389.488281 483.792969 389.066406 C 484.074219 388.648438 484.3125 388.203125 484.507812 387.734375 C 484.699219 387.269531 484.847656 386.785156 484.945312 386.289062 C 485.042969 385.792969 485.09375 385.292969 485.09375 384.789062 Z M 485.09375 292.351562 C 485.09375 291.84375 485.042969 291.34375 484.945312 290.847656 C 484.847656 290.351562 484.699219 289.871094 484.507812 289.402344 C 484.3125 288.933594 484.074219 288.492188 483.792969 288.070312 C 483.511719 287.648438 483.195312 287.261719 482.835938 286.902344 C 482.476562 286.546875 482.089844 286.226562 481.667969 285.945312 C 481.246094 285.664062 480.804688 285.425781 480.335938 285.234375 C 479.867188 285.039062 479.386719 284.894531 478.890625 284.796875 C 478.394531 284.695312 477.894531 284.648438 477.386719 284.648438 L 446.5625 284.648438 C 446.058594 284.648438 445.554688 284.695312 445.058594 284.796875 C 444.5625 284.894531 444.082031 285.039062 443.613281 285.234375 C 443.148438 285.425781 442.703125 285.664062 442.28125 285.945312 C 441.863281 286.226562 441.472656 286.546875 441.113281 286.902344 C 440.757812 287.261719 440.4375 287.648438 440.15625 288.070312 C 439.875 288.492188 439.636719 288.933594 439.445312 289.402344 C 439.25 289.871094 439.105469 290.351562 439.003906 290.847656 C 438.90625 291.34375 438.859375 291.84375 438.859375 292.351562 L 438.859375 323.164062 C 438.859375 323.667969 438.90625 324.167969 439.003906 324.664062 C 439.105469 325.160156 439.25 325.644531 439.445312 326.109375 C 439.636719 326.578125 439.875 327.023438 440.15625 327.441406 C 440.4375 327.863281 440.757812 328.253906 441.113281 328.609375 C 441.472656 328.96875 441.863281 329.285156 442.28125 329.566406 C 442.703125 329.847656 443.148438 330.085938 443.613281 330.28125 C 444.082031 330.472656 444.5625 330.621094 445.058594 330.71875 C 445.554688 330.816406 446.058594 330.867188 446.5625 330.867188 L 477.386719 330.867188 C 477.894531 330.867188 478.394531 330.816406 478.890625 330.71875 C 479.386719 330.621094 479.867188 330.472656 480.335938 330.28125 C 480.804688 330.085938 481.246094 329.847656 481.667969 329.566406 C 482.089844 329.285156 482.476562 328.96875 482.835938 328.609375 C 483.195312 328.253906 483.511719 327.863281 483.792969 327.441406 C 484.074219 327.023438 484.3125 326.578125 484.507812 326.109375 C 484.699219 325.644531 484.847656 325.160156 484.945312 324.664062 C 485.042969 324.167969 485.09375 323.667969 485.09375 323.164062 Z M 485.09375 153.695312 C 485.09375 153.1875 485.042969 152.6875 484.945312 152.191406 C 484.847656 151.695312 484.699219 151.214844 484.507812 150.746094 C 484.3125 150.277344 484.074219 149.835938 483.792969 149.414062 C 483.511719 148.992188 483.195312 148.605469 482.835938 148.246094 C 482.476562 147.890625 482.089844 147.570312 481.667969 147.289062 C 481.246094 147.007812 480.804688 146.769531 480.335938 146.578125 C 479.867188 146.382812 479.386719 146.238281 478.890625 146.140625 C 478.394531 146.039062 477.894531 145.992188 477.386719 145.992188 L 238.503906 145.992188 C 237.996094 145.992188 237.496094 146.039062 237 146.140625 C 236.503906 146.238281 236.023438 146.382812 235.554688 146.578125 C 235.085938 146.769531 234.644531 147.007812 234.222656 147.289062 C 233.800781 147.570312 233.414062 147.890625 233.054688 148.246094 C 232.695312 148.605469 232.378906 148.992188 232.097656 149.414062 C 231.816406 149.835938 231.578125 150.277344 231.382812 150.746094 C 231.191406 151.214844 231.042969 151.695312 230.945312 152.191406 C 230.847656 152.6875 230.796875 153.1875 230.796875 153.695312 L 230.796875 261.539062 C 230.796875 262.042969 230.847656 262.542969 230.945312 263.039062 C 231.042969 263.535156 231.191406 264.019531 231.382812 264.484375 C 231.578125 264.953125 231.816406 265.398438 232.097656 265.816406 C 232.378906 266.238281 232.695312 266.628906 233.054688 266.984375 C 233.414062 267.34375 233.800781 267.660156 234.222656 267.941406 C 234.644531 268.222656 235.085938 268.460938 235.554688 268.65625 C 236.023438 268.847656 236.503906 268.996094 237 269.09375 C 237.496094 269.191406 237.996094 269.242188 238.503906 269.242188 L 477.386719 269.242188 C 477.894531 269.242188 478.394531 269.191406 478.890625 269.09375 C 479.386719 268.996094 479.867188 268.847656 480.335938 268.65625 C 480.804688 268.460938 481.246094 268.222656 481.667969 267.941406 C 482.089844 267.660156 482.476562 267.34375 482.835938 266.984375 C 483.195312 266.628906 483.511719 266.238281 483.792969 265.816406 C 484.074219 265.398438 484.3125 264.953125 484.507812 264.484375 C 484.699219 264.019531 484.847656 263.535156 484.945312 263.039062 C 485.042969 262.542969 485.09375 262.042969 485.09375 261.539062 Z M 454.269531 315.460938 L 469.679688 315.460938 L 469.679688 300.054688 L 454.269531 300.054688 Z M 454.269531 377.085938 L 469.679688 377.085938 L 469.679688 361.679688 L 454.269531 361.679688 Z M 246.210938 377.085938 L 261.621094 377.085938 L 261.621094 361.679688 L 246.210938 361.679688 Z M 246.210938 377.085938 " fill-opacity="1" fill-rule="nonzero"/></g></svg>