<svg xmlns="http://www.w3.org/2000/svg" xmlns:xlink="http://www.w3.org/1999/xlink" width="800" zoomAndPan="magnify" viewBox="0 0 600 599.999999" height="800" preserveAspectRatio="xMidYMid meet" version="1.0"><defs><clipPath id="a2ab1c55af"><path d="M 77 136.140625 L 523 136.140625 L 523 268 L 77 268 Z M 77 136.140625 " clip-rule="nonzero"/></clipPath><clipPath id="3ffd49ffca"><path d="M 270 406 L 329 406 L 329 463.890625 L 270 463.890625 Z M 270 406 " clip-rule="nonzero"/></clipPath></defs><g clip-path="url(#a2ab1c55af)"><path fill="#00000d" d="M 515.441406 225.367188 C 486.367188 196.308594 452.472656 173.808594 414.695312 158.484375 C 378.214844 143.6875 339.683594 136.183594 300.164062 136.183594 C 260.640625 136.183594 222.113281 143.6875 185.632812 158.484375 C 147.863281 173.804688 113.964844 196.308594 84.894531 225.367188 C 75.167969 235.089844 75.167969 250.847656 84.894531 260.570312 C 94.617188 270.289062 110.386719 270.289062 120.113281 260.570312 C 219.394531 161.34375 380.933594 161.34375 480.214844 260.570312 C 485.078125 265.429688 491.453125 267.859375 497.824219 267.859375 C 504.199219 267.859375 510.574219 265.429688 515.4375 260.570312 C 525.164062 250.847656 525.164062 235.089844 515.4375 225.367188 Z M 515.441406 225.367188 " fill-opacity="1" fill-rule="nonzero"/></g><path fill="#00000d" d="M 300.109375 226.792969 C 242.453125 226.792969 188.21875 249.261719 147.394531 290.054688 C 138.199219 299.246094 138.199219 314.144531 147.394531 323.335938 C 156.589844 332.527344 171.5 332.527344 180.695312 323.335938 C 246.539062 257.527344 353.671875 257.527344 419.511719 323.335938 C 424.105469 327.929688 430.132812 330.226562 436.160156 330.226562 C 442.183594 330.226562 448.210938 327.929688 452.808594 323.335938 C 462.003906 314.144531 462.003906 299.246094 452.808594 290.054688 C 411.988281 249.261719 357.75 226.792969 300.09375 226.792969 Z M 300.109375 226.792969 " fill-opacity="1" fill-rule="nonzero"/><path fill="#00000d" d="M 300.109375 311.726562 C 265.054688 311.726562 232.078125 325.386719 207.265625 350.1875 C 198.117188 359.332031 198.117188 374.152344 207.265625 383.292969 C 216.410156 392.4375 231.242188 392.4375 240.390625 383.292969 C 273.316406 350.386719 326.898438 350.386719 359.828125 383.292969 C 364.402344 387.867188 370.394531 390.152344 376.390625 390.152344 C 382.386719 390.152344 388.378906 387.867188 392.953125 383.292969 C 402.101562 374.152344 402.101562 359.332031 392.953125 350.1875 C 368.136719 325.386719 335.164062 311.726562 300.109375 311.726562 Z M 300.109375 311.726562 " fill-opacity="1" fill-rule="nonzero"/><g clip-path="url(#3ffd49ffca)"><path fill="#000000" d="M 328.613281 435.019531 C 328.613281 435.964844 328.566406 436.90625 328.472656 437.84375 C 328.378906 438.785156 328.242188 439.714844 328.058594 440.640625 C 327.875 441.566406 327.644531 442.480469 327.371094 443.382812 C 327.097656 444.285156 326.777344 445.175781 326.417969 446.046875 C 326.054688 446.917969 325.652344 447.769531 325.207031 448.601562 C 324.761719 449.433594 324.277344 450.242188 323.753906 451.027344 C 323.230469 451.8125 322.667969 452.570312 322.066406 453.296875 C 321.46875 454.027344 320.835938 454.726562 320.167969 455.394531 C 319.5 456.058594 318.800781 456.691406 318.070312 457.292969 C 317.34375 457.890625 316.585938 458.453125 315.800781 458.976562 C 315.015625 459.5 314.207031 459.984375 313.371094 460.429688 C 312.539062 460.875 311.6875 461.277344 310.816406 461.640625 C 309.941406 462 309.054688 462.316406 308.152344 462.589844 C 307.25 462.867188 306.332031 463.09375 305.40625 463.277344 C 304.480469 463.460938 303.546875 463.601562 302.609375 463.691406 C 301.667969 463.785156 300.726562 463.832031 299.785156 463.832031 C 298.839844 463.832031 297.898438 463.785156 296.957031 463.691406 C 296.019531 463.601562 295.085938 463.460938 294.160156 463.277344 C 293.234375 463.09375 292.320312 462.867188 291.414062 462.589844 C 290.511719 462.316406 289.625 462 288.75 461.640625 C 287.878906 461.277344 287.027344 460.875 286.195312 460.429688 C 285.359375 459.984375 284.550781 459.5 283.765625 458.976562 C 282.980469 458.453125 282.226562 457.890625 281.496094 457.292969 C 280.765625 456.695312 280.066406 456.058594 279.398438 455.394531 C 278.730469 454.726562 278.097656 454.027344 277.5 453.296875 C 276.898438 452.570312 276.339844 451.8125 275.8125 451.027344 C 275.289062 450.242188 274.804688 449.433594 274.359375 448.601562 C 273.914062 447.769531 273.511719 446.917969 273.148438 446.046875 C 272.789062 445.175781 272.46875 444.285156 272.195312 443.382812 C 271.921875 442.480469 271.691406 441.566406 271.507812 440.640625 C 271.324219 439.714844 271.1875 438.785156 271.09375 437.84375 C 271 436.90625 270.953125 435.964844 270.953125 435.019531 C 270.953125 434.078125 271 433.136719 271.09375 432.195312 C 271.1875 431.257812 271.324219 430.324219 271.507812 429.398438 C 271.691406 428.472656 271.921875 427.558594 272.195312 426.65625 C 272.46875 425.753906 272.789062 424.867188 273.148438 423.996094 C 273.511719 423.121094 273.914062 422.269531 274.359375 421.4375 C 274.804688 420.605469 275.289062 419.796875 275.8125 419.011719 C 276.339844 418.226562 276.898438 417.472656 277.5 416.742188 C 278.097656 416.011719 278.730469 415.3125 279.398438 414.648438 C 280.066406 413.980469 280.765625 413.347656 281.496094 412.75 C 282.226562 412.148438 282.980469 411.589844 283.765625 411.0625 C 284.550781 410.539062 285.359375 410.054688 286.195312 409.609375 C 287.027344 409.164062 287.878906 408.761719 288.75 408.402344 C 289.625 408.039062 290.511719 407.722656 291.414062 407.449219 C 292.320312 407.175781 293.234375 406.945312 294.160156 406.761719 C 295.085938 406.578125 296.019531 406.4375 296.957031 406.347656 C 297.898438 406.253906 298.839844 406.207031 299.785156 406.207031 C 300.726562 406.207031 301.667969 406.253906 302.609375 406.347656 C 303.546875 406.4375 304.480469 406.578125 305.40625 406.761719 C 306.332031 406.945312 307.25 407.175781 308.152344 407.449219 C 309.054688 407.722656 309.941406 408.039062 310.816406 408.402344 C 311.6875 408.761719 312.539062 409.164062 313.371094 409.609375 C 314.207031 410.054688 315.015625 410.539062 315.800781 411.0625 C 316.585938 411.589844 317.34375 412.148438 318.070312 412.75 C 318.800781 413.347656 319.5 413.980469 320.167969 414.648438 C 320.835938 415.3125 321.46875 416.011719 322.066406 416.742188 C 322.667969 417.472656 323.230469 418.226562 323.753906 419.011719 C 324.277344 419.796875 324.761719 420.605469 325.207031 421.4375 C 325.652344 422.269531 326.054688 423.121094 326.417969 423.996094 C 326.777344 424.867188 327.097656 425.753906 327.371094 426.65625 C 327.644531 427.558594 327.875 428.472656 328.058594 429.398438 C 328.242188 430.324219 328.378906 431.257812 328.472656 432.195312 C 328.566406 433.136719 328.613281 434.078125 328.613281 435.019531 Z M 328.613281 435.019531 " fill-opacity="1" fill-rule="nonzero"/></g></svg>